<svg width="33" height="33" viewBox="0 0 33 33" fill="none" xmlns="http://www.w3.org/2000/svg">
<circle cx="16.5" cy="16.5" r="15.5" stroke="black" stroke-opacity="0.5" stroke-width="2"/>
<path d="M25.6227 20.8623C25.2996 21.6169 24.917 22.3115 24.4738 22.9502C23.8697 23.8208 23.3751 24.4235 22.9938 24.7581C22.4029 25.3075 21.7698 25.5888 21.0917 25.6048C20.605 25.6048 20.018 25.4648 19.3348 25.1808C18.6492 24.8981 18.0192 24.7581 17.4432 24.7581C16.8391 24.7581 16.1911 24.8981 15.4981 25.1808C14.804 25.4648 14.2449 25.6128 13.8174 25.6274C13.1672 25.6554 12.5191 25.3661 11.8723 24.7581C11.4594 24.3941 10.943 23.7702 10.3243 22.8862C9.66057 21.9422 9.11488 20.8476 8.68737 19.5996C8.22952 18.2517 8 16.9464 8 15.6827C8 14.2351 8.30945 12.9866 8.92928 11.9404C9.41642 11.1 10.0645 10.4371 10.8756 9.95045C11.6867 9.4638 12.5631 9.21581 13.5068 9.19994C14.0233 9.19994 14.7005 9.3614 15.542 9.67873C16.3812 9.99712 16.9201 10.1586 17.1563 10.1586C17.3329 10.1586 17.9315 9.96979 18.9463 9.5934C19.9059 9.24434 20.7158 9.09981 21.3793 9.15674C23.1772 9.30341 24.5279 10.0198 25.4262 11.3104C23.8183 12.2952 23.0229 13.6745 23.0387 15.4439C23.0532 16.8221 23.5479 17.969 24.52 18.8796C24.9606 19.3023 25.4526 19.629 26 19.861C25.8813 20.2089 25.756 20.5423 25.6227 20.8623ZM21.4993 4.46142C21.4993 5.54167 21.1089 6.55029 20.3306 7.48386C19.3915 8.59369 18.2555 9.23501 17.0236 9.13381C17.0079 9.00422 16.9988 8.86782 16.9988 8.72449C16.9988 7.68745 17.4454 6.57762 18.2386 5.67018C18.6346 5.21073 19.1382 4.8287 19.7489 4.52395C20.3583 4.22375 20.9348 4.05773 21.4769 4.0293C21.4927 4.17371 21.4993 4.31813 21.4993 4.46141V4.46142Z" fill="black"/>
</svg>
