<svg width="33" height="33" viewBox="0 0 33 33" fill="none" xmlns="http://www.w3.org/2000/svg">
<circle cx="16.5" cy="16.5" r="15.5" stroke="black" stroke-opacity="0.5" stroke-width="2"/>
<g clip-path="url(#clip0_59_593)">
<path d="M17 14V18.26H22.92C22.66 19.63 21.8799 20.7901 20.71 21.57L24.2799 24.3401C26.3599 22.4201 27.5599 19.6001 27.5599 16.2501C27.5599 15.4701 27.49 14.7201 27.3599 14.0001L17 14Z" fill="#4285F4"/>
<path d="M10.8349 18.0938L10.0297 18.7101L7.17969 20.9301C8.98968 24.52 12.6994 27.0001 16.9994 27.0001C19.9693 27.0001 22.4593 26.0201 24.2793 24.3401L20.7093 21.5701C19.7293 22.2301 18.4793 22.6301 16.9994 22.6301C14.1394 22.6301 11.7095 20.7001 10.8394 18.1001L10.8349 18.0938Z" fill="#34A853"/>
<path d="M7.17991 11.0703C6.42996 12.5503 6 14.2203 6 16.0002C6 17.7802 6.42996 19.4502 7.17991 20.9302C7.17991 20.9401 10.84 18.0902 10.84 18.0902C10.62 17.4302 10.4899 16.7302 10.4899 16.0001C10.4899 15.27 10.62 14.5701 10.84 13.9101L7.17991 11.0703Z" fill="#FBBC05"/>
<path d="M16.9996 9.38C18.6196 9.38 20.0596 9.93998 21.2096 11.02L24.3596 7.87004C22.4496 6.09007 19.9696 5 16.9996 5C12.6996 5 8.98968 7.47 7.17969 11.07L10.8396 13.91C11.7096 11.31 14.1396 9.38 16.9996 9.38Z" fill="#EA4335"/>
</g>
<defs>
<clipPath id="clip0_59_593">
<rect width="22" height="22" fill="white" transform="translate(6 5)"/>
</clipPath>
</defs>
</svg>
