<svg width="689" height="305" viewBox="0 0 689 305" fill="none" xmlns="http://www.w3.org/2000/svg">
<rect width="689" height="305" rx="5" fill="white"/>
<path d="M25.368 19.2H21.88V29H19.728V19.2H16.24V17.432H25.368V19.2ZM28.2799 20.664C28.8879 20.664 29.4399 20.7627 29.9359 20.96C30.4372 21.1573 30.8639 21.4373 31.2159 21.8C31.5732 22.1627 31.8479 22.6053 32.0399 23.128C32.2319 23.6507 32.3279 24.2347 32.3279 24.88C32.3279 25.5307 32.2319 26.1173 32.0399 26.64C31.8479 27.1627 31.5732 27.608 31.2159 27.976C30.8639 28.344 30.4372 28.6267 29.9359 28.824C29.4399 29.0213 28.8879 29.12 28.2799 29.12C27.6665 29.12 27.1092 29.0213 26.6079 28.824C26.1065 28.6267 25.6772 28.344 25.3199 27.976C24.9679 27.608 24.6932 27.1627 24.4959 26.64C24.3039 26.1173 24.2079 25.5307 24.2079 24.88C24.2079 24.2347 24.3039 23.6507 24.4959 23.128C24.6932 22.6053 24.9679 22.1627 25.3199 21.8C25.6772 21.4373 26.1065 21.1573 26.6079 20.96C27.1092 20.7627 27.6665 20.664 28.2799 20.664ZM28.2799 27.6C28.9625 27.6 29.4665 27.3707 29.7919 26.912C30.1225 26.4533 30.2879 25.7813 30.2879 24.896C30.2879 24.0107 30.1225 23.336 29.7919 22.872C29.4665 22.408 28.9625 22.176 28.2799 22.176C27.5865 22.176 27.0719 22.4107 26.7359 22.88C26.4052 23.344 26.2399 24.016 26.2399 24.896C26.2399 25.776 26.4052 26.448 26.7359 26.912C27.0719 27.3707 27.5865 27.6 28.2799 27.6ZM36.4151 29.128C35.7005 29.128 35.1511 28.928 34.7671 28.528C34.3885 28.1227 34.1991 27.5653 34.1991 26.856V22.272H33.3591C33.2525 22.272 33.1618 22.2373 33.0871 22.168C33.0125 22.0987 32.9751 21.9947 32.9751 21.856V21.072L34.2951 20.856L34.7111 18.616C34.7378 18.5093 34.7885 18.4267 34.8631 18.368C34.9378 18.3093 35.0338 18.28 35.1511 18.28H36.1751V20.864H38.3671V22.272H36.1751V26.72C36.1751 26.976 36.2365 27.176 36.3591 27.32C36.4871 27.464 36.6605 27.536 36.8791 27.536C37.0018 27.536 37.1031 27.5227 37.1831 27.496C37.2685 27.464 37.3405 27.432 37.3991 27.4C37.4631 27.368 37.5191 27.3387 37.5671 27.312C37.6151 27.28 37.6631 27.264 37.7111 27.264C37.7698 27.264 37.8178 27.28 37.8551 27.312C37.8925 27.3387 37.9325 27.3813 37.9751 27.44L38.5671 28.4C38.2791 28.64 37.9485 28.8213 37.5751 28.944C37.2018 29.0667 36.8151 29.128 36.4151 29.128ZM43.9683 25.496C43.3976 25.5227 42.9176 25.5733 42.5283 25.648C42.1389 25.7173 41.8269 25.808 41.5923 25.92C41.3576 26.032 41.1896 26.1627 41.0883 26.312C40.9869 26.4613 40.9363 26.624 40.9363 26.8C40.9363 27.1467 41.0376 27.3947 41.2403 27.544C41.4483 27.6933 41.7176 27.768 42.0483 27.768C42.4536 27.768 42.8029 27.696 43.0963 27.552C43.3949 27.4027 43.6856 27.1787 43.9683 26.88V25.496ZM39.4403 21.936C40.3843 21.072 41.5203 20.64 42.8483 20.64C43.3283 20.64 43.7576 20.72 44.1363 20.88C44.5149 21.0347 44.8349 21.2533 45.0963 21.536C45.3576 21.8133 45.5549 22.1467 45.6883 22.536C45.8269 22.9253 45.8963 23.352 45.8963 23.816V29H45.0003C44.8136 29 44.6696 28.9733 44.5683 28.92C44.4669 28.8613 44.3869 28.7467 44.3283 28.576L44.1523 27.984C43.9443 28.1707 43.7416 28.336 43.5443 28.48C43.3469 28.6187 43.1416 28.736 42.9283 28.832C42.7149 28.928 42.4856 29 42.2403 29.048C42.0003 29.1013 41.7336 29.128 41.4403 29.128C41.0936 29.128 40.7736 29.0827 40.4803 28.992C40.1869 28.896 39.9336 28.7547 39.7203 28.568C39.5069 28.3813 39.3416 28.1493 39.2243 27.872C39.1069 27.5947 39.0483 27.272 39.0483 26.904C39.0483 26.696 39.0829 26.4907 39.1523 26.288C39.2216 26.08 39.3336 25.8827 39.4883 25.696C39.6483 25.5093 39.8536 25.3333 40.1043 25.168C40.3549 25.0027 40.6616 24.8587 41.0243 24.736C41.3923 24.6133 41.8189 24.5147 42.3043 24.44C42.7896 24.36 43.3443 24.312 43.9683 24.296V23.816C43.9683 23.2667 43.8509 22.8613 43.6163 22.6C43.3816 22.3333 43.0429 22.2 42.6003 22.2C42.2803 22.2 42.0136 22.2373 41.8003 22.312C41.5923 22.3867 41.4083 22.472 41.2483 22.568C41.0883 22.6587 40.9416 22.7413 40.8083 22.816C40.6803 22.8907 40.5363 22.928 40.3763 22.928C40.2376 22.928 40.1203 22.8933 40.0243 22.824C39.9283 22.7493 39.8509 22.664 39.7923 22.568L39.4403 21.936ZM49.7573 17.112V29H47.7812V17.112H49.7573ZM59.4246 22.936C59.83 22.936 60.182 22.8853 60.4806 22.784C60.7846 22.6827 61.0326 22.544 61.2246 22.368C61.422 22.1867 61.5686 21.9733 61.6646 21.728C61.7606 21.4827 61.8086 21.2133 61.8086 20.92C61.8086 20.3333 61.614 19.8827 61.2246 19.568C60.8406 19.2533 60.2513 19.096 59.4566 19.096H58.0806V22.936H59.4246ZM64.9606 29H63.0166C62.6486 29 62.382 28.856 62.2166 28.568L59.7846 24.864C59.694 24.7253 59.5926 24.6267 59.4806 24.568C59.374 24.5093 59.214 24.48 59.0006 24.48H58.0806V29H55.9286V17.432H59.4566C60.2406 17.432 60.9126 17.5147 61.4726 17.68C62.038 17.84 62.4993 18.0667 62.8566 18.36C63.2193 18.6533 63.486 19.0053 63.6566 19.416C63.8273 19.8213 63.9126 20.2693 63.9126 20.76C63.9126 21.1493 63.854 21.5173 63.7366 21.864C63.6246 22.2107 63.4593 22.5253 63.2406 22.808C63.0273 23.0907 62.7606 23.3387 62.4406 23.552C62.126 23.7653 61.766 23.9333 61.3606 24.056C61.4993 24.136 61.6273 24.232 61.7446 24.344C61.862 24.4507 61.9686 24.5787 62.0646 24.728L64.9606 29ZM70.6546 23.952C70.6546 23.696 70.6173 23.456 70.5426 23.232C70.4733 23.0027 70.3666 22.8027 70.2226 22.632C70.0786 22.4613 69.8946 22.328 69.6706 22.232C69.452 22.1307 69.196 22.08 68.9026 22.08C68.332 22.08 67.8813 22.2427 67.5506 22.568C67.2253 22.8933 67.0173 23.3547 66.9266 23.952H70.6546ZM66.8866 25.144C66.9186 25.5653 66.9933 25.9307 67.1106 26.24C67.228 26.544 67.3826 26.7973 67.5746 27C67.7666 27.1973 67.9933 27.3467 68.2546 27.448C68.5213 27.544 68.8146 27.592 69.1346 27.592C69.4546 27.592 69.7293 27.5547 69.9586 27.48C70.1933 27.4053 70.396 27.3227 70.5666 27.232C70.7426 27.1413 70.8946 27.0587 71.0226 26.984C71.156 26.9093 71.284 26.872 71.4066 26.872C71.572 26.872 71.6946 26.9333 71.7746 27.056L72.3426 27.776C72.124 28.032 71.8786 28.248 71.6066 28.424C71.3346 28.5947 71.0493 28.7333 70.7506 28.84C70.4573 28.9413 70.156 29.0133 69.8466 29.056C69.5426 29.0987 69.2466 29.12 68.9586 29.12C68.388 29.12 67.8573 29.0267 67.3666 28.84C66.876 28.648 66.4493 28.368 66.0866 28C65.724 27.6267 65.4386 27.168 65.2306 26.624C65.0226 26.0747 64.9186 25.44 64.9186 24.72C64.9186 24.16 65.0093 23.6347 65.1906 23.144C65.372 22.648 65.6306 22.2187 65.9666 21.856C66.308 21.488 66.7213 21.1973 67.2066 20.984C67.6973 20.7707 68.2493 20.664 68.8626 20.664C69.38 20.664 69.8573 20.7467 70.2946 20.912C70.732 21.0773 71.108 21.32 71.4226 21.64C71.7373 21.9547 71.9826 22.344 72.1586 22.808C72.34 23.2667 72.4306 23.792 72.4306 24.384C72.4306 24.6827 72.3986 24.8853 72.3346 24.992C72.2706 25.0933 72.148 25.144 71.9666 25.144H66.8866ZM81.1104 20.792L77.8544 29H76.0624L72.8064 20.792H74.4384C74.5877 20.792 74.7104 20.8267 74.8064 20.896C74.9077 20.9653 74.9744 21.0533 75.0064 21.16L76.5904 25.544C76.6757 25.8 76.7504 26.0507 76.8144 26.296C76.8784 26.5413 76.9344 26.7867 76.9824 27.032C77.0357 26.7867 77.0944 26.5413 77.1584 26.296C77.2224 26.0507 77.2997 25.8 77.3904 25.544L79.0064 21.16C79.0437 21.0533 79.1104 20.9653 79.2064 20.896C79.3024 20.8267 79.417 20.792 79.5504 20.792H81.1104ZM87.2015 23.952C87.2015 23.696 87.1642 23.456 87.0895 23.232C87.0202 23.0027 86.9135 22.8027 86.7695 22.632C86.6255 22.4613 86.4415 22.328 86.2175 22.232C85.9988 22.1307 85.7428 22.08 85.4495 22.08C84.8788 22.08 84.4282 22.2427 84.0975 22.568C83.7722 22.8933 83.5642 23.3547 83.4735 23.952H87.2015ZM83.4335 25.144C83.4655 25.5653 83.5402 25.9307 83.6575 26.24C83.7748 26.544 83.9295 26.7973 84.1215 27C84.3135 27.1973 84.5402 27.3467 84.8015 27.448C85.0682 27.544 85.3615 27.592 85.6815 27.592C86.0015 27.592 86.2762 27.5547 86.5055 27.48C86.7402 27.4053 86.9428 27.3227 87.1135 27.232C87.2895 27.1413 87.4415 27.0587 87.5695 26.984C87.7028 26.9093 87.8308 26.872 87.9535 26.872C88.1188 26.872 88.2415 26.9333 88.3215 27.056L88.8895 27.776C88.6708 28.032 88.4255 28.248 88.1535 28.424C87.8815 28.5947 87.5962 28.7333 87.2975 28.84C87.0042 28.9413 86.7028 29.0133 86.3935 29.056C86.0895 29.0987 85.7935 29.12 85.5055 29.12C84.9348 29.12 84.4042 29.0267 83.9135 28.84C83.4228 28.648 82.9962 28.368 82.6335 28C82.2708 27.6267 81.9855 27.168 81.7775 26.624C81.5695 26.0747 81.4655 25.44 81.4655 24.72C81.4655 24.16 81.5562 23.6347 81.7375 23.144C81.9188 22.648 82.1775 22.2187 82.5135 21.856C82.8548 21.488 83.2682 21.1973 83.7535 20.984C84.2442 20.7707 84.7962 20.664 85.4095 20.664C85.9268 20.664 86.4042 20.7467 86.8415 20.912C87.2788 21.0773 87.6548 21.32 87.9695 21.64C88.2842 21.9547 88.5295 22.344 88.7055 22.808C88.8868 23.2667 88.9775 23.792 88.9775 24.384C88.9775 24.6827 88.9455 24.8853 88.8815 24.992C88.8175 25.0933 88.6948 25.144 88.5135 25.144H83.4335ZM92.3084 21.8C92.4737 21.6347 92.647 21.4827 92.8284 21.344C93.015 21.2 93.2097 21.08 93.4124 20.984C93.6204 20.8827 93.8417 20.8053 94.0764 20.752C94.311 20.6933 94.567 20.664 94.8444 20.664C95.2924 20.664 95.6897 20.7413 96.0364 20.896C96.383 21.0453 96.671 21.2587 96.9004 21.536C97.135 21.808 97.311 22.136 97.4284 22.52C97.551 22.8987 97.6124 23.3173 97.6124 23.776V29H95.6364V23.776C95.6364 23.2747 95.5217 22.888 95.2924 22.616C95.063 22.3387 94.7137 22.2 94.2444 22.2C93.903 22.2 93.583 22.2773 93.2844 22.432C92.9857 22.5867 92.703 22.7973 92.4364 23.064V29H90.4604V20.792H91.6684C91.9244 20.792 92.0924 20.912 92.1724 21.152L92.3084 21.8ZM106.564 20.792V29H105.356C105.094 29 104.929 28.88 104.86 28.64L104.724 27.984C104.388 28.3253 104.017 28.6027 103.612 28.816C103.206 29.024 102.729 29.128 102.18 29.128C101.732 29.128 101.334 29.0533 100.988 28.904C100.646 28.7493 100.358 28.5333 100.124 28.256C99.889 27.9787 99.7103 27.6507 99.5876 27.272C99.4703 26.888 99.4116 26.4667 99.4116 26.008V20.792H101.388V26.008C101.388 26.5093 101.502 26.8987 101.732 27.176C101.966 27.448 102.316 27.584 102.78 27.584C103.121 27.584 103.441 27.5093 103.74 27.36C104.038 27.2053 104.321 26.9947 104.588 26.728V20.792H106.564ZM113.811 23.952C113.811 23.696 113.774 23.456 113.699 23.232C113.63 23.0027 113.523 22.8027 113.379 22.632C113.235 22.4613 113.051 22.328 112.827 22.232C112.608 22.1307 112.352 22.08 112.059 22.08C111.488 22.08 111.038 22.2427 110.707 22.568C110.382 22.8933 110.174 23.3547 110.083 23.952H113.811ZM110.043 25.144C110.075 25.5653 110.15 25.9307 110.267 26.24C110.384 26.544 110.539 26.7973 110.731 27C110.923 27.1973 111.15 27.3467 111.411 27.448C111.678 27.544 111.971 27.592 112.291 27.592C112.611 27.592 112.886 27.5547 113.115 27.48C113.35 27.4053 113.552 27.3227 113.723 27.232C113.899 27.1413 114.051 27.0587 114.179 26.984C114.312 26.9093 114.44 26.872 114.563 26.872C114.728 26.872 114.851 26.9333 114.931 27.056L115.499 27.776C115.28 28.032 115.035 28.248 114.763 28.424C114.491 28.5947 114.206 28.7333 113.907 28.84C113.614 28.9413 113.312 29.0133 113.003 29.056C112.699 29.0987 112.403 29.12 112.115 29.12C111.544 29.12 111.014 29.0267 110.523 28.84C110.032 28.648 109.606 28.368 109.243 28C108.88 27.6267 108.595 27.168 108.387 26.624C108.179 26.0747 108.075 25.44 108.075 24.72C108.075 24.16 108.166 23.6347 108.347 23.144C108.528 22.648 108.787 22.2187 109.123 21.856C109.464 21.488 109.878 21.1973 110.363 20.984C110.854 20.7707 111.406 20.664 112.019 20.664C112.536 20.664 113.014 20.7467 113.451 20.912C113.888 21.0773 114.264 21.32 114.579 21.64C114.894 21.9547 115.139 22.344 115.315 22.808C115.496 23.2667 115.587 23.792 115.587 24.384C115.587 24.6827 115.555 24.8853 115.491 24.992C115.427 25.0933 115.304 25.144 115.123 25.144H110.043Z" fill="#292929"/>
<path d="M127.238 60.6C127.678 60.508 128.076 60.462 128.432 60.462C128.88 60.462 129.276 60.53 129.62 60.666C129.964 60.798 130.252 60.982 130.484 61.218C130.72 61.45 130.896 61.726 131.012 62.046C131.132 62.362 131.192 62.706 131.192 63.078C131.192 63.534 131.112 63.948 130.952 64.32C130.792 64.692 130.572 65.01 130.292 65.274C130.012 65.538 129.68 65.742 129.296 65.886C128.916 66.026 128.506 66.096 128.066 66.096C127.806 66.096 127.558 66.07 127.322 66.018C127.09 65.966 126.872 65.898 126.668 65.814C126.464 65.726 126.274 65.626 126.098 65.514C125.926 65.402 125.772 65.284 125.636 65.16L125.996 64.656C126.072 64.544 126.174 64.488 126.302 64.488C126.386 64.488 126.478 64.52 126.578 64.584C126.682 64.644 126.804 64.712 126.944 64.788C127.084 64.864 127.25 64.934 127.442 64.998C127.634 65.058 127.862 65.088 128.126 65.088C128.418 65.088 128.68 65.042 128.912 64.95C129.148 64.854 129.346 64.72 129.506 64.548C129.67 64.376 129.794 64.17 129.878 63.93C129.966 63.69 130.01 63.424 130.01 63.132C130.01 62.872 129.972 62.638 129.896 62.43C129.82 62.222 129.706 62.044 129.554 61.896C129.402 61.748 129.212 61.636 128.984 61.56C128.756 61.48 128.49 61.44 128.186 61.44C127.762 61.44 127.31 61.516 126.83 61.668L126.092 61.452L126.794 57.384H130.922V57.894C130.922 58.062 130.868 58.2 130.76 58.308C130.656 58.412 130.48 58.464 130.232 58.464H127.61L127.238 60.6ZM136.329 59.466C136.329 59.802 136.275 60.102 136.167 60.366C136.063 60.63 135.923 60.854 135.747 61.038C135.571 61.218 135.365 61.358 135.129 61.458C134.897 61.554 134.653 61.602 134.397 61.602C134.121 61.602 133.865 61.554 133.629 61.458C133.397 61.358 133.195 61.218 133.023 61.038C132.851 60.854 132.715 60.63 132.615 60.366C132.519 60.102 132.471 59.802 132.471 59.466C132.471 59.122 132.519 58.816 132.615 58.548C132.715 58.28 132.851 58.054 133.023 57.87C133.195 57.682 133.397 57.54 133.629 57.444C133.865 57.344 134.121 57.294 134.397 57.294C134.673 57.294 134.927 57.344 135.159 57.444C135.395 57.54 135.599 57.682 135.771 57.87C135.947 58.054 136.083 58.28 136.179 58.548C136.279 58.816 136.329 59.122 136.329 59.466ZM135.417 59.466C135.417 59.21 135.389 58.994 135.333 58.818C135.281 58.638 135.209 58.494 135.117 58.386C135.025 58.274 134.917 58.194 134.793 58.146C134.669 58.094 134.537 58.068 134.397 58.068C134.257 58.068 134.125 58.094 134.001 58.146C133.877 58.194 133.769 58.274 133.677 58.386C133.589 58.494 133.519 58.638 133.467 58.818C133.415 58.994 133.389 59.21 133.389 59.466C133.389 59.714 133.415 59.926 133.467 60.102C133.519 60.274 133.589 60.414 133.677 60.522C133.769 60.63 133.877 60.708 134.001 60.756C134.125 60.804 134.257 60.828 134.397 60.828C134.537 60.828 134.669 60.804 134.793 60.756C134.917 60.708 135.025 60.63 135.117 60.522C135.209 60.414 135.281 60.274 135.333 60.102C135.389 59.926 135.417 59.714 135.417 59.466ZM139.329 57.576C139.373 57.524 139.423 57.48 139.479 57.444C139.539 57.404 139.621 57.384 139.725 57.384H140.571L134.247 65.814C134.203 65.87 134.151 65.916 134.091 65.952C134.031 65.984 133.959 66 133.875 66H133.005L139.329 57.576ZM141.123 63.966C141.123 64.302 141.069 64.602 140.961 64.866C140.857 65.13 140.717 65.354 140.541 65.538C140.365 65.718 140.159 65.858 139.923 65.958C139.691 66.054 139.447 66.102 139.191 66.102C138.915 66.102 138.659 66.054 138.423 65.958C138.191 65.858 137.989 65.718 137.817 65.538C137.645 65.354 137.509 65.13 137.409 64.866C137.313 64.602 137.265 64.302 137.265 63.966C137.265 63.622 137.313 63.316 137.409 63.048C137.509 62.78 137.645 62.554 137.817 62.37C137.989 62.182 138.191 62.04 138.423 61.944C138.659 61.848 138.915 61.8 139.191 61.8C139.467 61.8 139.721 61.848 139.953 61.944C140.189 62.04 140.393 62.182 140.565 62.37C140.741 62.554 140.877 62.78 140.973 63.048C141.073 63.316 141.123 63.622 141.123 63.966ZM140.211 63.966C140.211 63.71 140.183 63.494 140.127 63.318C140.075 63.142 140.003 63 139.911 62.892C139.819 62.78 139.711 62.7 139.587 62.652C139.463 62.6 139.331 62.574 139.191 62.574C139.047 62.574 138.913 62.6 138.789 62.652C138.669 62.7 138.563 62.78 138.471 62.892C138.383 63 138.313 63.142 138.261 63.318C138.209 63.494 138.183 63.71 138.183 63.966C138.183 64.218 138.209 64.43 138.261 64.602C138.313 64.774 138.383 64.914 138.471 65.022C138.563 65.13 138.669 65.208 138.789 65.256C138.913 65.304 139.047 65.328 139.191 65.328C139.331 65.328 139.463 65.304 139.587 65.256C139.711 65.208 139.819 65.13 139.911 65.022C140.003 64.914 140.075 64.774 140.127 64.602C140.183 64.43 140.211 64.218 140.211 63.966ZM147.394 66.096C146.902 66.096 146.522 65.958 146.254 65.682C145.99 65.406 145.858 65.012 145.858 64.5V60.852H145.15C145.082 60.852 145.024 60.832 144.976 60.792C144.932 60.748 144.91 60.684 144.91 60.6V60.126L145.9 59.988L146.164 58.17C146.18 58.102 146.21 58.05 146.254 58.014C146.302 57.974 146.362 57.954 146.434 57.954H147.028V60H148.756V60.852H147.028V64.422C147.028 64.662 147.086 64.842 147.202 64.962C147.322 65.078 147.474 65.136 147.658 65.136C147.766 65.136 147.858 65.122 147.934 65.094C148.014 65.066 148.082 65.036 148.138 65.004C148.194 64.968 148.242 64.936 148.282 64.908C148.322 64.88 148.358 64.866 148.39 64.866C148.43 64.866 148.46 64.876 148.48 64.896C148.504 64.912 148.528 64.94 148.552 64.98L148.9 65.544C148.708 65.72 148.48 65.856 148.216 65.952C147.952 66.048 147.678 66.096 147.394 66.096ZM151.004 60.678C151.26 60.418 151.542 60.208 151.85 60.048C152.162 59.888 152.52 59.808 152.924 59.808C153.26 59.808 153.554 59.864 153.806 59.976C154.062 60.088 154.276 60.246 154.448 60.45C154.62 60.65 154.75 60.892 154.838 61.176C154.926 61.46 154.97 61.774 154.97 62.118V66H153.794V62.118C153.794 61.682 153.694 61.344 153.494 61.104C153.294 60.86 152.988 60.738 152.576 60.738C152.276 60.738 151.994 60.81 151.73 60.954C151.47 61.094 151.228 61.286 151.004 61.53V66H149.834V57.144H151.004V60.678ZM159.825 63.294C159.349 63.31 158.945 63.348 158.613 63.408C158.281 63.464 158.011 63.54 157.803 63.636C157.595 63.732 157.445 63.846 157.353 63.978C157.261 64.106 157.215 64.25 157.215 64.41C157.215 64.562 157.239 64.694 157.287 64.806C157.339 64.914 157.407 65.004 157.491 65.076C157.579 65.144 157.681 65.194 157.797 65.226C157.913 65.258 158.039 65.274 158.175 65.274C158.355 65.274 158.519 65.256 158.667 65.22C158.819 65.184 158.961 65.134 159.093 65.07C159.225 65.002 159.351 64.92 159.471 64.824C159.591 64.728 159.709 64.618 159.825 64.494V63.294ZM156.393 60.756C156.733 60.432 157.101 60.19 157.497 60.03C157.897 59.87 158.335 59.79 158.811 59.79C159.159 59.79 159.467 59.848 159.735 59.964C160.003 60.076 160.229 60.234 160.413 60.438C160.597 60.642 160.735 60.886 160.827 61.17C160.923 61.454 160.971 61.768 160.971 62.112V66H160.449C160.333 66 160.245 65.982 160.185 65.946C160.125 65.906 160.077 65.834 160.041 65.73L159.915 65.196C159.759 65.34 159.605 65.468 159.453 65.58C159.301 65.688 159.141 65.782 158.973 65.862C158.809 65.938 158.633 65.996 158.445 66.036C158.257 66.076 158.049 66.096 157.821 66.096C157.581 66.096 157.355 66.064 157.143 66C156.935 65.932 156.753 65.83 156.597 65.694C156.441 65.558 156.317 65.388 156.225 65.184C156.137 64.98 156.093 64.742 156.093 64.47C156.093 64.23 156.157 64 156.285 63.78C156.417 63.556 156.629 63.356 156.921 63.18C157.217 63.004 157.601 62.86 158.073 62.748C158.549 62.636 159.133 62.572 159.825 62.556V62.112C159.825 61.652 159.727 61.308 159.531 61.08C159.335 60.852 159.047 60.738 158.667 60.738C158.411 60.738 158.195 60.77 158.019 60.834C157.847 60.898 157.697 60.97 157.569 61.05C157.445 61.126 157.335 61.196 157.239 61.26C157.147 61.324 157.051 61.356 156.951 61.356C156.871 61.356 156.801 61.334 156.741 61.29C156.685 61.246 156.639 61.194 156.603 61.134L156.393 60.756ZM163.635 60.75C163.767 60.61 163.905 60.482 164.049 60.366C164.193 60.25 164.345 60.152 164.505 60.072C164.669 59.988 164.843 59.924 165.027 59.88C165.215 59.832 165.415 59.808 165.627 59.808C165.963 59.808 166.257 59.864 166.509 59.976C166.765 60.088 166.979 60.246 167.151 60.45C167.323 60.65 167.453 60.892 167.541 61.176C167.629 61.46 167.673 61.774 167.673 62.118V66H166.497V62.118C166.497 61.682 166.397 61.344 166.197 61.104C165.997 60.86 165.691 60.738 165.279 60.738C164.979 60.738 164.697 60.81 164.433 60.954C164.173 61.094 163.931 61.286 163.707 61.53V66H162.537V59.904H163.239C163.403 59.904 163.505 59.982 163.545 60.138L163.635 60.75ZM173.487 57.144V66H172.311V57.144H173.487ZM178.434 63.294C177.958 63.31 177.554 63.348 177.222 63.408C176.89 63.464 176.62 63.54 176.412 63.636C176.204 63.732 176.054 63.846 175.962 63.978C175.87 64.106 175.824 64.25 175.824 64.41C175.824 64.562 175.848 64.694 175.896 64.806C175.948 64.914 176.016 65.004 176.1 65.076C176.188 65.144 176.29 65.194 176.406 65.226C176.522 65.258 176.648 65.274 176.784 65.274C176.964 65.274 177.128 65.256 177.276 65.22C177.428 65.184 177.57 65.134 177.702 65.07C177.834 65.002 177.96 64.92 178.08 64.824C178.2 64.728 178.318 64.618 178.434 64.494V63.294ZM175.002 60.756C175.342 60.432 175.71 60.19 176.106 60.03C176.506 59.87 176.944 59.79 177.42 59.79C177.768 59.79 178.076 59.848 178.344 59.964C178.612 60.076 178.838 60.234 179.022 60.438C179.206 60.642 179.344 60.886 179.436 61.17C179.532 61.454 179.58 61.768 179.58 62.112V66H179.058C178.942 66 178.854 65.982 178.794 65.946C178.734 65.906 178.686 65.834 178.65 65.73L178.524 65.196C178.368 65.34 178.214 65.468 178.062 65.58C177.91 65.688 177.75 65.782 177.582 65.862C177.418 65.938 177.242 65.996 177.054 66.036C176.866 66.076 176.658 66.096 176.43 66.096C176.19 66.096 175.964 66.064 175.752 66C175.544 65.932 175.362 65.83 175.206 65.694C175.05 65.558 174.926 65.388 174.834 65.184C174.746 64.98 174.702 64.742 174.702 64.47C174.702 64.23 174.766 64 174.894 63.78C175.026 63.556 175.238 63.356 175.53 63.18C175.826 63.004 176.21 62.86 176.682 62.748C177.158 62.636 177.742 62.572 178.434 62.556V62.112C178.434 61.652 178.336 61.308 178.14 61.08C177.944 60.852 177.656 60.738 177.276 60.738C177.02 60.738 176.804 60.77 176.628 60.834C176.456 60.898 176.306 60.97 176.178 61.05C176.054 61.126 175.944 61.196 175.848 61.26C175.756 61.324 175.66 61.356 175.56 61.356C175.48 61.356 175.41 61.334 175.35 61.29C175.294 61.246 175.248 61.194 175.212 61.134L175.002 60.756ZM184.74 60.954C184.708 61.006 184.674 61.044 184.638 61.068C184.602 61.088 184.556 61.098 184.5 61.098C184.436 61.098 184.364 61.076 184.284 61.032C184.208 60.988 184.114 60.94 184.002 60.888C183.894 60.836 183.766 60.788 183.618 60.744C183.47 60.7 183.294 60.678 183.09 60.678C182.922 60.678 182.768 60.7 182.628 60.744C182.492 60.784 182.376 60.842 182.28 60.918C182.184 60.99 182.11 61.078 182.058 61.182C182.006 61.282 181.98 61.39 181.98 61.506C181.98 61.658 182.024 61.784 182.112 61.884C182.204 61.984 182.322 62.07 182.466 62.142C182.614 62.214 182.78 62.28 182.964 62.34C183.152 62.396 183.342 62.456 183.534 62.52C183.73 62.584 183.92 62.658 184.104 62.742C184.292 62.822 184.458 62.924 184.602 63.048C184.75 63.168 184.868 63.314 184.956 63.486C185.048 63.658 185.094 63.868 185.094 64.116C185.094 64.4 185.042 64.664 184.938 64.908C184.838 65.148 184.688 65.356 184.488 65.532C184.292 65.708 184.048 65.846 183.756 65.946C183.464 66.046 183.13 66.096 182.754 66.096C182.334 66.096 181.946 66.026 181.59 65.886C181.234 65.746 180.936 65.568 180.696 65.352L180.972 64.902C181.004 64.846 181.044 64.804 181.092 64.776C181.14 64.744 181.204 64.728 181.284 64.728C181.36 64.728 181.438 64.756 181.518 64.812C181.598 64.868 181.694 64.93 181.806 64.998C181.918 65.062 182.054 65.122 182.214 65.178C182.374 65.23 182.574 65.256 182.814 65.256C183.014 65.256 183.188 65.232 183.336 65.184C183.484 65.132 183.606 65.064 183.702 64.98C183.802 64.892 183.876 64.792 183.924 64.68C183.972 64.568 183.996 64.45 183.996 64.326C183.996 64.166 183.95 64.034 183.858 63.93C183.77 63.822 183.652 63.73 183.504 63.654C183.36 63.578 183.194 63.512 183.006 63.456C182.818 63.4 182.626 63.34 182.43 63.276C182.234 63.212 182.042 63.138 181.854 63.054C181.666 62.97 181.498 62.864 181.35 62.736C181.206 62.608 181.088 62.452 180.996 62.268C180.908 62.084 180.864 61.86 180.864 61.596C180.864 61.36 180.912 61.134 181.008 60.918C181.108 60.702 181.25 60.512 181.434 60.348C181.622 60.184 181.852 60.054 182.124 59.958C182.4 59.858 182.714 59.808 183.066 59.808C183.47 59.808 183.834 59.872 184.158 60C184.486 60.128 184.766 60.304 184.998 60.528L184.74 60.954ZM188.269 66.096C187.777 66.096 187.397 65.958 187.129 65.682C186.865 65.406 186.733 65.012 186.733 64.5V60.852H186.025C185.957 60.852 185.899 60.832 185.851 60.792C185.807 60.748 185.785 60.684 185.785 60.6V60.126L186.775 59.988L187.039 58.17C187.055 58.102 187.085 58.05 187.129 58.014C187.177 57.974 187.237 57.954 187.309 57.954H187.903V60H189.631V60.852H187.903V64.422C187.903 64.662 187.961 64.842 188.077 64.962C188.197 65.078 188.349 65.136 188.533 65.136C188.641 65.136 188.733 65.122 188.809 65.094C188.889 65.066 188.957 65.036 189.013 65.004C189.069 64.968 189.117 64.936 189.157 64.908C189.197 64.88 189.233 64.866 189.265 64.866C189.305 64.866 189.335 64.876 189.355 64.896C189.379 64.912 189.403 64.94 189.427 64.98L189.775 65.544C189.583 65.72 189.355 65.856 189.091 65.952C188.827 66.048 188.553 66.096 188.269 66.096ZM193.744 66V59.904H194.446C194.61 59.904 194.712 59.982 194.752 60.138L194.836 60.72C195.06 60.452 195.308 60.234 195.58 60.066C195.856 59.894 196.178 59.808 196.546 59.808C196.95 59.808 197.278 59.92 197.53 60.144C197.782 60.364 197.966 60.664 198.082 61.044C198.17 60.828 198.284 60.642 198.424 60.486C198.564 60.33 198.72 60.202 198.892 60.102C199.064 60.002 199.246 59.928 199.438 59.88C199.634 59.832 199.832 59.808 200.032 59.808C200.356 59.808 200.644 59.86 200.896 59.964C201.152 60.064 201.368 60.212 201.544 60.408C201.72 60.604 201.854 60.846 201.946 61.134C202.038 61.422 202.084 61.75 202.084 62.118V66H200.908V62.118C200.908 61.662 200.808 61.318 200.608 61.086C200.412 60.854 200.124 60.738 199.744 60.738C199.576 60.738 199.416 60.768 199.264 60.828C199.112 60.884 198.978 60.97 198.862 61.086C198.75 61.202 198.66 61.346 198.592 61.518C198.528 61.69 198.496 61.89 198.496 62.118V66H197.32V62.118C197.32 61.646 197.226 61.298 197.038 61.074C196.85 60.85 196.574 60.738 196.21 60.738C195.958 60.738 195.724 60.804 195.508 60.936C195.292 61.068 195.094 61.248 194.914 61.476V66H193.744ZM206.256 59.808C206.704 59.808 207.108 59.882 207.468 60.03C207.832 60.174 208.14 60.384 208.392 60.66C208.648 60.932 208.844 61.262 208.98 61.65C209.116 62.034 209.184 62.466 209.184 62.946C209.184 63.426 209.116 63.86 208.98 64.248C208.844 64.636 208.648 64.966 208.392 65.238C208.14 65.51 207.832 65.72 207.468 65.868C207.108 66.012 206.704 66.084 206.256 66.084C205.804 66.084 205.396 66.012 205.032 65.868C204.672 65.72 204.364 65.51 204.108 65.238C203.852 64.966 203.654 64.636 203.514 64.248C203.378 63.86 203.31 63.426 203.31 62.946C203.31 62.466 203.378 62.034 203.514 61.65C203.654 61.262 203.852 60.932 204.108 60.66C204.364 60.384 204.672 60.174 205.032 60.03C205.396 59.882 205.804 59.808 206.256 59.808ZM206.256 65.172C206.832 65.172 207.262 64.978 207.546 64.59C207.83 64.202 207.972 63.656 207.972 62.952C207.972 62.248 207.83 61.702 207.546 61.314C207.262 60.922 206.832 60.726 206.256 60.726C205.672 60.726 205.236 60.922 204.948 61.314C204.664 61.702 204.522 62.248 204.522 62.952C204.522 63.656 204.664 64.202 204.948 64.59C205.236 64.978 205.672 65.172 206.256 65.172ZM211.588 60.75C211.72 60.61 211.858 60.482 212.002 60.366C212.146 60.25 212.298 60.152 212.458 60.072C212.622 59.988 212.796 59.924 212.98 59.88C213.168 59.832 213.368 59.808 213.58 59.808C213.916 59.808 214.21 59.864 214.462 59.976C214.718 60.088 214.932 60.246 215.104 60.45C215.276 60.65 215.406 60.892 215.494 61.176C215.582 61.46 215.626 61.774 215.626 62.118V66H214.45V62.118C214.45 61.682 214.35 61.344 214.15 61.104C213.95 60.86 213.644 60.738 213.232 60.738C212.932 60.738 212.65 60.81 212.386 60.954C212.126 61.094 211.884 61.286 211.66 61.53V66H210.49V59.904H211.192C211.356 59.904 211.458 59.982 211.498 60.138L211.588 60.75ZM219.031 66.096C218.539 66.096 218.159 65.958 217.891 65.682C217.627 65.406 217.495 65.012 217.495 64.5V60.852H216.787C216.719 60.852 216.661 60.832 216.613 60.792C216.569 60.748 216.547 60.684 216.547 60.6V60.126L217.537 59.988L217.801 58.17C217.817 58.102 217.847 58.05 217.891 58.014C217.939 57.974 217.999 57.954 218.071 57.954H218.665V60H220.393V60.852H218.665V64.422C218.665 64.662 218.723 64.842 218.839 64.962C218.959 65.078 219.111 65.136 219.295 65.136C219.403 65.136 219.495 65.122 219.571 65.094C219.651 65.066 219.719 65.036 219.775 65.004C219.831 64.968 219.879 64.936 219.919 64.908C219.959 64.88 219.995 64.866 220.027 64.866C220.067 64.866 220.097 64.876 220.117 64.896C220.141 64.912 220.165 64.94 220.189 64.98L220.537 65.544C220.345 65.72 220.117 65.856 219.853 65.952C219.589 66.048 219.315 66.096 219.031 66.096ZM222.64 60.678C222.896 60.418 223.178 60.208 223.486 60.048C223.798 59.888 224.156 59.808 224.56 59.808C224.896 59.808 225.19 59.864 225.442 59.976C225.698 60.088 225.912 60.246 226.084 60.45C226.256 60.65 226.386 60.892 226.474 61.176C226.562 61.46 226.606 61.774 226.606 62.118V66H225.43V62.118C225.43 61.682 225.33 61.344 225.13 61.104C224.93 60.86 224.624 60.738 224.212 60.738C223.912 60.738 223.63 60.81 223.366 60.954C223.106 61.094 222.864 61.286 222.64 61.53V66H221.47V57.144H222.64V60.678Z" fill="#4CE13F"/>
<path d="M22.132 126.106V127H17.476V126.106H19.3V120.46C19.3 120.28 19.306 120.094 19.318 119.902L17.854 121.144C17.798 121.188 17.742 121.216 17.686 121.228C17.63 121.24 17.576 121.242 17.524 121.234C17.476 121.226 17.432 121.21 17.392 121.186C17.356 121.158 17.326 121.13 17.302 121.102L16.936 120.592L19.516 118.366H20.47V126.106H22.132ZM29.5729 122.692C29.5729 123.444 29.4909 124.096 29.3269 124.648C29.1669 125.2 28.9449 125.658 28.6609 126.022C28.3809 126.382 28.0489 126.65 27.6649 126.826C27.2849 127.002 26.8749 127.09 26.4349 127.09C25.9949 127.09 25.5829 127.002 25.1989 126.826C24.8189 126.65 24.4889 126.382 24.2089 126.022C23.9289 125.658 23.7089 125.2 23.5489 124.648C23.3889 124.096 23.3089 123.444 23.3089 122.692C23.3089 121.94 23.3889 121.288 23.5489 120.736C23.7089 120.18 23.9289 119.722 24.2089 119.362C24.4889 118.998 24.8189 118.728 25.1989 118.552C25.5829 118.376 25.9949 118.288 26.4349 118.288C26.8749 118.288 27.2849 118.376 27.6649 118.552C28.0489 118.728 28.3809 118.998 28.6609 119.362C28.9449 119.722 29.1669 120.18 29.3269 120.736C29.4909 121.288 29.5729 121.94 29.5729 122.692ZM28.3609 122.692C28.3609 122.044 28.3069 121.502 28.1989 121.066C28.0949 120.63 27.9529 120.28 27.7729 120.016C27.5969 119.748 27.3929 119.558 27.1609 119.446C26.9289 119.334 26.6869 119.278 26.4349 119.278C26.1829 119.278 25.9409 119.334 25.7089 119.446C25.4769 119.558 25.2709 119.748 25.0909 120.016C24.9149 120.28 24.7749 120.63 24.6709 121.066C24.5669 121.502 24.5149 122.044 24.5149 122.692C24.5149 123.34 24.5669 123.882 24.6709 124.318C24.7749 124.754 24.9149 125.104 25.0909 125.368C25.2709 125.632 25.4769 125.82 25.7089 125.932C25.9409 126.044 26.1829 126.1 26.4349 126.1C26.6869 126.1 26.9289 126.044 27.1609 125.932C27.3929 125.82 27.5969 125.632 27.7729 125.368C27.9529 125.104 28.0949 124.754 28.1989 124.318C28.3069 123.882 28.3609 123.34 28.3609 122.692ZM36.5339 122.692C36.5339 123.444 36.4519 124.096 36.2879 124.648C36.1279 125.2 35.9059 125.658 35.6219 126.022C35.3419 126.382 35.0099 126.65 34.6259 126.826C34.2459 127.002 33.8359 127.09 33.3959 127.09C32.9559 127.09 32.5439 127.002 32.1599 126.826C31.7799 126.65 31.4499 126.382 31.1699 126.022C30.8899 125.658 30.6699 125.2 30.5099 124.648C30.3499 124.096 30.2699 123.444 30.2699 122.692C30.2699 121.94 30.3499 121.288 30.5099 120.736C30.6699 120.18 30.8899 119.722 31.1699 119.362C31.4499 118.998 31.7799 118.728 32.1599 118.552C32.5439 118.376 32.9559 118.288 33.3959 118.288C33.8359 118.288 34.2459 118.376 34.6259 118.552C35.0099 118.728 35.3419 118.998 35.6219 119.362C35.9059 119.722 36.1279 120.18 36.2879 120.736C36.4519 121.288 36.5339 121.94 36.5339 122.692ZM35.3219 122.692C35.3219 122.044 35.2679 121.502 35.1599 121.066C35.0559 120.63 34.9139 120.28 34.7339 120.016C34.5579 119.748 34.3539 119.558 34.1219 119.446C33.8899 119.334 33.6479 119.278 33.3959 119.278C33.1439 119.278 32.9019 119.334 32.6699 119.446C32.4379 119.558 32.2319 119.748 32.0519 120.016C31.8759 120.28 31.7359 120.63 31.6319 121.066C31.5279 121.502 31.4759 122.044 31.4759 122.692C31.4759 123.34 31.5279 123.882 31.6319 124.318C31.7359 124.754 31.8759 125.104 32.0519 125.368C32.2319 125.632 32.4379 125.82 32.6699 125.932C32.9019 126.044 33.1439 126.1 33.3959 126.1C33.6479 126.1 33.8899 126.044 34.1219 125.932C34.3539 125.82 34.5579 125.632 34.7339 125.368C34.9139 125.104 35.0559 124.754 35.1599 124.318C35.2679 123.882 35.3219 123.34 35.3219 122.692ZM38.8748 118.144V123.322H39.1508C39.2348 123.322 39.3048 123.31 39.3608 123.286C39.4168 123.262 39.4748 123.214 39.5348 123.142L41.3588 121.132C41.4148 121.056 41.4768 121 41.5448 120.964C41.6128 120.924 41.6988 120.904 41.8028 120.904H42.8708L40.7168 123.262C40.6008 123.41 40.4768 123.524 40.3448 123.604C40.4208 123.656 40.4868 123.716 40.5428 123.784C40.6028 123.852 40.6608 123.926 40.7168 124.006L43.0088 127H41.9588C41.8628 127 41.7788 126.984 41.7068 126.952C41.6388 126.92 41.5768 126.862 41.5208 126.778L39.6368 124.33C39.5768 124.238 39.5168 124.18 39.4568 124.156C39.3968 124.128 39.3068 124.114 39.1868 124.114H38.8748V127H37.7048V118.144H38.8748Z" fill="#676767"/>
<path d="M26.48 155.166C26.752 155.166 26.994 155.128 27.206 155.052C27.418 154.976 27.598 154.87 27.746 154.734C27.894 154.594 28.006 154.428 28.082 154.236C28.158 154.044 28.196 153.834 28.196 153.606C28.196 153.326 28.15 153.086 28.058 152.886C27.966 152.682 27.842 152.516 27.686 152.388C27.53 152.256 27.348 152.16 27.14 152.1C26.932 152.036 26.712 152.004 26.48 152.004C26.244 152.004 26.022 152.036 25.814 152.1C25.606 152.16 25.424 152.256 25.268 152.388C25.112 152.516 24.988 152.682 24.896 152.886C24.808 153.086 24.764 153.326 24.764 153.606C24.764 153.834 24.802 154.044 24.878 154.236C24.954 154.428 25.066 154.594 25.214 154.734C25.362 154.87 25.542 154.976 25.754 155.052C25.966 155.128 26.208 155.166 26.48 155.166ZM26.48 148.188C26.232 148.188 26.014 148.226 25.826 148.302C25.642 148.374 25.488 148.474 25.364 148.602C25.24 148.73 25.146 148.878 25.082 149.046C25.022 149.214 24.992 149.394 24.992 149.586C24.992 149.774 25.018 149.958 25.07 150.138C25.126 150.314 25.212 150.472 25.328 150.612C25.448 150.748 25.602 150.858 25.79 150.942C25.978 151.026 26.208 151.068 26.48 151.068C26.748 151.068 26.976 151.026 27.164 150.942C27.356 150.858 27.51 150.748 27.626 150.612C27.746 150.472 27.832 150.314 27.884 150.138C27.94 149.958 27.968 149.774 27.968 149.586C27.968 149.394 27.936 149.214 27.872 149.046C27.812 148.878 27.72 148.73 27.596 148.602C27.472 148.474 27.316 148.374 27.128 148.302C26.944 148.226 26.728 148.188 26.48 148.188ZM27.77 151.506C28.306 151.666 28.712 151.924 28.988 152.28C29.268 152.636 29.408 153.086 29.408 153.63C29.408 154.006 29.336 154.346 29.192 154.65C29.052 154.954 28.852 155.214 28.592 155.43C28.336 155.642 28.028 155.806 27.668 155.922C27.308 156.038 26.912 156.096 26.48 156.096C26.048 156.096 25.652 156.038 25.292 155.922C24.932 155.806 24.622 155.642 24.362 155.43C24.106 155.214 23.906 154.954 23.762 154.65C23.622 154.346 23.552 154.006 23.552 153.63C23.552 153.086 23.69 152.636 23.966 152.28C24.246 151.924 24.654 151.666 25.19 151.506C24.746 151.338 24.412 151.088 24.188 150.756C23.964 150.42 23.852 150.022 23.852 149.562C23.852 149.242 23.914 148.944 24.038 148.668C24.166 148.388 24.344 148.146 24.572 147.942C24.804 147.738 25.082 147.578 25.406 147.462C25.73 147.346 26.088 147.288 26.48 147.288C26.872 147.288 27.23 147.346 27.554 147.462C27.878 147.578 28.154 147.738 28.382 147.942C28.614 148.146 28.792 148.388 28.916 148.668C29.044 148.944 29.108 149.242 29.108 149.562C29.108 150.022 28.996 150.42 28.772 150.756C28.548 151.088 28.214 151.338 27.77 151.506ZM36.5729 151.692C36.5729 152.444 36.4909 153.096 36.3269 153.648C36.1669 154.2 35.9449 154.658 35.6609 155.022C35.3809 155.382 35.0489 155.65 34.6649 155.826C34.2849 156.002 33.8749 156.09 33.4349 156.09C32.9949 156.09 32.5829 156.002 32.1989 155.826C31.8189 155.65 31.4889 155.382 31.2089 155.022C30.9289 154.658 30.7089 154.2 30.5489 153.648C30.3889 153.096 30.3089 152.444 30.3089 151.692C30.3089 150.94 30.3889 150.288 30.5489 149.736C30.7089 149.18 30.9289 148.722 31.2089 148.362C31.4889 147.998 31.8189 147.728 32.1989 147.552C32.5829 147.376 32.9949 147.288 33.4349 147.288C33.8749 147.288 34.2849 147.376 34.6649 147.552C35.0489 147.728 35.3809 147.998 35.6609 148.362C35.9449 148.722 36.1669 149.18 36.3269 149.736C36.4909 150.288 36.5729 150.94 36.5729 151.692ZM35.3609 151.692C35.3609 151.044 35.3069 150.502 35.1989 150.066C35.0949 149.63 34.9529 149.28 34.7729 149.016C34.5969 148.748 34.3929 148.558 34.1609 148.446C33.9289 148.334 33.6869 148.278 33.4349 148.278C33.1829 148.278 32.9409 148.334 32.7089 148.446C32.4769 148.558 32.2709 148.748 32.0909 149.016C31.9149 149.28 31.7749 149.63 31.6709 150.066C31.5669 150.502 31.5149 151.044 31.5149 151.692C31.5149 152.34 31.5669 152.882 31.6709 153.318C31.7749 153.754 31.9149 154.104 32.0909 154.368C32.2709 154.632 32.4769 154.82 32.7089 154.932C32.9409 155.044 33.1829 155.1 33.4349 155.1C33.6869 155.1 33.9289 155.044 34.1609 154.932C34.3929 154.82 34.5969 154.632 34.7729 154.368C34.9529 154.104 35.0949 153.754 35.1989 153.318C35.3069 152.882 35.3609 152.34 35.3609 151.692ZM38.9139 147.144V152.322H39.1899C39.2739 152.322 39.3439 152.31 39.3999 152.286C39.4559 152.262 39.5139 152.214 39.5739 152.142L41.3979 150.132C41.4539 150.056 41.5159 150 41.5839 149.964C41.6519 149.924 41.7379 149.904 41.8419 149.904H42.9099L40.7559 152.262C40.6399 152.41 40.5159 152.524 40.3839 152.604C40.4599 152.656 40.5259 152.716 40.5819 152.784C40.6419 152.852 40.6999 152.926 40.7559 153.006L43.0479 156H41.9979C41.9019 156 41.8179 155.984 41.7459 155.952C41.6779 155.92 41.6159 155.862 41.5599 155.778L39.6759 153.33C39.6159 153.238 39.5559 153.18 39.4959 153.156C39.4359 153.128 39.3459 153.114 39.2259 153.114H38.9139V156H37.7439V147.144H38.9139Z" fill="#676767"/>
<path d="M26.468 184.118C26.744 184.118 26.994 184.074 27.218 183.986C27.442 183.894 27.634 183.77 27.794 183.614C27.954 183.458 28.078 183.272 28.166 183.056C28.254 182.84 28.298 182.606 28.298 182.354C28.298 182.078 28.254 181.832 28.166 181.616C28.082 181.396 27.962 181.21 27.806 181.058C27.654 180.906 27.47 180.79 27.254 180.71C27.038 180.63 26.798 180.59 26.534 180.59C26.258 180.59 26.01 180.638 25.79 180.734C25.57 180.826 25.382 180.952 25.226 181.112C25.07 181.268 24.95 181.452 24.866 181.664C24.782 181.876 24.74 182.098 24.74 182.33C24.74 182.594 24.778 182.836 24.854 183.056C24.93 183.276 25.042 183.464 25.19 183.62C25.338 183.776 25.518 183.898 25.73 183.986C25.946 184.074 26.192 184.118 26.468 184.118ZM25.916 179.588C25.848 179.676 25.78 179.762 25.712 179.846C25.648 179.926 25.586 180.006 25.526 180.086C25.718 179.962 25.93 179.866 26.162 179.798C26.398 179.73 26.652 179.696 26.924 179.696C27.264 179.696 27.588 179.752 27.896 179.864C28.204 179.976 28.474 180.14 28.706 180.356C28.942 180.572 29.128 180.84 29.264 181.16C29.4 181.48 29.468 181.848 29.468 182.264C29.468 182.66 29.396 183.032 29.252 183.38C29.108 183.724 28.904 184.024 28.64 184.28C28.38 184.532 28.068 184.732 27.704 184.88C27.34 185.024 26.936 185.096 26.492 185.096C26.052 185.096 25.654 185.026 25.298 184.886C24.946 184.746 24.644 184.548 24.392 184.292C24.144 184.032 23.952 183.72 23.816 183.356C23.68 182.988 23.612 182.58 23.612 182.132C23.612 181.748 23.694 181.344 23.858 180.92C24.026 180.492 24.29 180.036 24.65 179.552L26.804 176.666C26.864 176.586 26.948 176.52 27.056 176.468C27.164 176.412 27.288 176.384 27.428 176.384H28.472L25.916 179.588ZM36.5729 180.692C36.5729 181.444 36.4909 182.096 36.3269 182.648C36.1669 183.2 35.9449 183.658 35.6609 184.022C35.3809 184.382 35.0489 184.65 34.6649 184.826C34.2849 185.002 33.8749 185.09 33.4349 185.09C32.9949 185.09 32.5829 185.002 32.1989 184.826C31.8189 184.65 31.4889 184.382 31.2089 184.022C30.9289 183.658 30.7089 183.2 30.5489 182.648C30.3889 182.096 30.3089 181.444 30.3089 180.692C30.3089 179.94 30.3889 179.288 30.5489 178.736C30.7089 178.18 30.9289 177.722 31.2089 177.362C31.4889 176.998 31.8189 176.728 32.1989 176.552C32.5829 176.376 32.9949 176.288 33.4349 176.288C33.8749 176.288 34.2849 176.376 34.6649 176.552C35.0489 176.728 35.3809 176.998 35.6609 177.362C35.9449 177.722 36.1669 178.18 36.3269 178.736C36.4909 179.288 36.5729 179.94 36.5729 180.692ZM35.3609 180.692C35.3609 180.044 35.3069 179.502 35.1989 179.066C35.0949 178.63 34.9529 178.28 34.7729 178.016C34.5969 177.748 34.3929 177.558 34.1609 177.446C33.9289 177.334 33.6869 177.278 33.4349 177.278C33.1829 177.278 32.9409 177.334 32.7089 177.446C32.4769 177.558 32.2709 177.748 32.0909 178.016C31.9149 178.28 31.7749 178.63 31.6709 179.066C31.5669 179.502 31.5149 180.044 31.5149 180.692C31.5149 181.34 31.5669 181.882 31.6709 182.318C31.7749 182.754 31.9149 183.104 32.0909 183.368C32.2709 183.632 32.4769 183.82 32.7089 183.932C32.9409 184.044 33.1829 184.1 33.4349 184.1C33.6869 184.1 33.9289 184.044 34.1609 183.932C34.3929 183.82 34.5969 183.632 34.7729 183.368C34.9529 183.104 35.0949 182.754 35.1989 182.318C35.3069 181.882 35.3609 181.34 35.3609 180.692ZM38.9139 176.144V181.322H39.1899C39.2739 181.322 39.3439 181.31 39.3999 181.286C39.4559 181.262 39.5139 181.214 39.5739 181.142L41.3979 179.132C41.4539 179.056 41.5159 179 41.5839 178.964C41.6519 178.924 41.7379 178.904 41.8419 178.904H42.9099L40.7559 181.262C40.6399 181.41 40.5159 181.524 40.3839 181.604C40.4599 181.656 40.5259 181.716 40.5819 181.784C40.6419 181.852 40.6999 181.926 40.7559 182.006L43.0479 185H41.9979C41.9019 185 41.8179 184.984 41.7459 184.952C41.6779 184.92 41.6159 184.862 41.5599 184.778L39.6759 182.33C39.6159 182.238 39.5559 182.18 39.4959 182.156C39.4359 182.128 39.3459 182.114 39.2259 182.114H38.9139V185H37.7439V176.144H38.9139Z" fill="#676767"/>
<path d="M25.238 208.6C25.678 208.508 26.076 208.462 26.432 208.462C26.88 208.462 27.276 208.53 27.62 208.666C27.964 208.798 28.252 208.982 28.484 209.218C28.72 209.45 28.896 209.726 29.012 210.046C29.132 210.362 29.192 210.706 29.192 211.078C29.192 211.534 29.112 211.948 28.952 212.32C28.792 212.692 28.572 213.01 28.292 213.274C28.012 213.538 27.68 213.742 27.296 213.886C26.916 214.026 26.506 214.096 26.066 214.096C25.806 214.096 25.558 214.07 25.322 214.018C25.09 213.966 24.872 213.898 24.668 213.814C24.464 213.726 24.274 213.626 24.098 213.514C23.926 213.402 23.772 213.284 23.636 213.16L23.996 212.656C24.072 212.544 24.174 212.488 24.302 212.488C24.386 212.488 24.478 212.52 24.578 212.584C24.682 212.644 24.804 212.712 24.944 212.788C25.084 212.864 25.25 212.934 25.442 212.998C25.634 213.058 25.862 213.088 26.126 213.088C26.418 213.088 26.68 213.042 26.912 212.95C27.148 212.854 27.346 212.72 27.506 212.548C27.67 212.376 27.794 212.17 27.878 211.93C27.966 211.69 28.01 211.424 28.01 211.132C28.01 210.872 27.972 210.638 27.896 210.43C27.82 210.222 27.706 210.044 27.554 209.896C27.402 209.748 27.212 209.636 26.984 209.56C26.756 209.48 26.49 209.44 26.186 209.44C25.762 209.44 25.31 209.516 24.83 209.668L24.092 209.452L24.794 205.384H28.922V205.894C28.922 206.062 28.868 206.2 28.76 206.308C28.656 206.412 28.48 206.464 28.232 206.464H25.61L25.238 208.6ZM36.5729 209.692C36.5729 210.444 36.4909 211.096 36.3269 211.648C36.1669 212.2 35.9449 212.658 35.6609 213.022C35.3809 213.382 35.0489 213.65 34.6649 213.826C34.2849 214.002 33.8749 214.09 33.4349 214.09C32.9949 214.09 32.5829 214.002 32.1989 213.826C31.8189 213.65 31.4889 213.382 31.2089 213.022C30.9289 212.658 30.7089 212.2 30.5489 211.648C30.3889 211.096 30.3089 210.444 30.3089 209.692C30.3089 208.94 30.3889 208.288 30.5489 207.736C30.7089 207.18 30.9289 206.722 31.2089 206.362C31.4889 205.998 31.8189 205.728 32.1989 205.552C32.5829 205.376 32.9949 205.288 33.4349 205.288C33.8749 205.288 34.2849 205.376 34.6649 205.552C35.0489 205.728 35.3809 205.998 35.6609 206.362C35.9449 206.722 36.1669 207.18 36.3269 207.736C36.4909 208.288 36.5729 208.94 36.5729 209.692ZM35.3609 209.692C35.3609 209.044 35.3069 208.502 35.1989 208.066C35.0949 207.63 34.9529 207.28 34.7729 207.016C34.5969 206.748 34.3929 206.558 34.1609 206.446C33.9289 206.334 33.6869 206.278 33.4349 206.278C33.1829 206.278 32.9409 206.334 32.7089 206.446C32.4769 206.558 32.2709 206.748 32.0909 207.016C31.9149 207.28 31.7749 207.63 31.6709 208.066C31.5669 208.502 31.5149 209.044 31.5149 209.692C31.5149 210.34 31.5669 210.882 31.6709 211.318C31.7749 211.754 31.9149 212.104 32.0909 212.368C32.2709 212.632 32.4769 212.82 32.7089 212.932C32.9409 213.044 33.1829 213.1 33.4349 213.1C33.6869 213.1 33.9289 213.044 34.1609 212.932C34.3929 212.82 34.5969 212.632 34.7729 212.368C34.9529 212.104 35.0949 211.754 35.1989 211.318C35.3069 210.882 35.3609 210.34 35.3609 209.692ZM38.9139 205.144V210.322H39.1899C39.2739 210.322 39.3439 210.31 39.3999 210.286C39.4559 210.262 39.5139 210.214 39.5739 210.142L41.3979 208.132C41.4539 208.056 41.5159 208 41.5839 207.964C41.6519 207.924 41.7379 207.904 41.8419 207.904H42.9099L40.7559 210.262C40.6399 210.41 40.5159 210.524 40.3839 210.604C40.4599 210.656 40.5259 210.716 40.5819 210.784C40.6419 210.852 40.6999 210.926 40.7559 211.006L43.0479 214H41.9979C41.9019 214 41.8179 213.984 41.7459 213.952C41.6779 213.92 41.6159 213.862 41.5599 213.778L39.6759 211.33C39.6159 211.238 39.5559 211.18 39.4959 211.156C39.4359 211.128 39.3459 211.114 39.2259 211.114H38.9139V214H37.7439V205.144H38.9139Z" fill="#676767"/>
<path d="M28.916 241.89C29.044 241.89 29.144 241.928 29.216 242.004C29.288 242.076 29.324 242.172 29.324 242.292V243H23.54V242.598C23.54 242.518 23.556 242.434 23.588 242.346C23.62 242.254 23.674 242.172 23.75 242.1L26.474 239.37C26.702 239.142 26.908 238.922 27.092 238.71C27.276 238.498 27.432 238.288 27.56 238.08C27.688 237.868 27.786 237.652 27.854 237.432C27.926 237.212 27.962 236.98 27.962 236.736C27.962 236.496 27.924 236.286 27.848 236.106C27.772 235.922 27.668 235.77 27.536 235.65C27.404 235.53 27.248 235.44 27.068 235.38C26.888 235.32 26.694 235.29 26.486 235.29C26.278 235.29 26.086 235.32 25.91 235.38C25.738 235.44 25.584 235.524 25.448 235.632C25.312 235.74 25.198 235.868 25.106 236.016C25.014 236.164 24.948 236.324 24.908 236.496C24.852 236.648 24.78 236.75 24.692 236.802C24.608 236.854 24.484 236.866 24.32 236.838L23.708 236.73C23.764 236.33 23.874 235.978 24.038 235.674C24.202 235.37 24.408 235.116 24.656 234.912C24.904 234.704 25.188 234.548 25.508 234.444C25.832 234.34 26.18 234.288 26.552 234.288C26.928 234.288 27.274 234.344 27.59 234.456C27.91 234.564 28.186 234.722 28.418 234.93C28.65 235.138 28.832 235.392 28.964 235.692C29.096 235.988 29.162 236.324 29.162 236.7C29.162 237.02 29.114 237.318 29.018 237.594C28.926 237.866 28.798 238.126 28.634 238.374C28.474 238.622 28.286 238.864 28.07 239.1C27.858 239.332 27.632 239.568 27.392 239.808L25.208 242.04C25.376 241.996 25.544 241.96 25.712 241.932C25.884 241.904 26.046 241.89 26.198 241.89H28.916ZM36.5729 238.692C36.5729 239.444 36.4909 240.096 36.3269 240.648C36.1669 241.2 35.9449 241.658 35.6609 242.022C35.3809 242.382 35.0489 242.65 34.6649 242.826C34.2849 243.002 33.8749 243.09 33.4349 243.09C32.9949 243.09 32.5829 243.002 32.1989 242.826C31.8189 242.65 31.4889 242.382 31.2089 242.022C30.9289 241.658 30.7089 241.2 30.5489 240.648C30.3889 240.096 30.3089 239.444 30.3089 238.692C30.3089 237.94 30.3889 237.288 30.5489 236.736C30.7089 236.18 30.9289 235.722 31.2089 235.362C31.4889 234.998 31.8189 234.728 32.1989 234.552C32.5829 234.376 32.9949 234.288 33.4349 234.288C33.8749 234.288 34.2849 234.376 34.6649 234.552C35.0489 234.728 35.3809 234.998 35.6609 235.362C35.9449 235.722 36.1669 236.18 36.3269 236.736C36.4909 237.288 36.5729 237.94 36.5729 238.692ZM35.3609 238.692C35.3609 238.044 35.3069 237.502 35.1989 237.066C35.0949 236.63 34.9529 236.28 34.7729 236.016C34.5969 235.748 34.3929 235.558 34.1609 235.446C33.9289 235.334 33.6869 235.278 33.4349 235.278C33.1829 235.278 32.9409 235.334 32.7089 235.446C32.4769 235.558 32.2709 235.748 32.0909 236.016C31.9149 236.28 31.7749 236.63 31.6709 237.066C31.5669 237.502 31.5149 238.044 31.5149 238.692C31.5149 239.34 31.5669 239.882 31.6709 240.318C31.7749 240.754 31.9149 241.104 32.0909 241.368C32.2709 241.632 32.4769 241.82 32.7089 241.932C32.9409 242.044 33.1829 242.1 33.4349 242.1C33.6869 242.1 33.9289 242.044 34.1609 241.932C34.3929 241.82 34.5969 241.632 34.7729 241.368C34.9529 241.104 35.0949 240.754 35.1989 240.318C35.3069 239.882 35.3609 239.34 35.3609 238.692ZM38.9139 234.144V239.322H39.1899C39.2739 239.322 39.3439 239.31 39.3999 239.286C39.4559 239.262 39.5139 239.214 39.5739 239.142L41.3979 237.132C41.4539 237.056 41.5159 237 41.5839 236.964C41.6519 236.924 41.7379 236.904 41.8419 236.904H42.9099L40.7559 239.262C40.6399 239.41 40.5159 239.524 40.3839 239.604C40.4599 239.656 40.5259 239.716 40.5819 239.784C40.6419 239.852 40.6999 239.926 40.7559 240.006L43.0479 243H41.9979C41.9019 243 41.8179 242.984 41.7459 242.952C41.6779 242.92 41.6159 242.862 41.5599 242.778L39.6759 240.33C39.6159 240.238 39.5559 240.18 39.4959 240.156C39.4359 240.128 39.3459 240.114 39.2259 240.114H38.9139V243H37.7439V234.144H38.9139Z" fill="#676767"/>
<path d="M43.612 267.692C43.612 268.444 43.53 269.096 43.366 269.648C43.206 270.2 42.984 270.658 42.7 271.022C42.42 271.382 42.088 271.65 41.704 271.826C41.324 272.002 40.914 272.09 40.474 272.09C40.034 272.09 39.622 272.002 39.238 271.826C38.858 271.65 38.528 271.382 38.248 271.022C37.968 270.658 37.748 270.2 37.588 269.648C37.428 269.096 37.348 268.444 37.348 267.692C37.348 266.94 37.428 266.288 37.588 265.736C37.748 265.18 37.968 264.722 38.248 264.362C38.528 263.998 38.858 263.728 39.238 263.552C39.622 263.376 40.034 263.288 40.474 263.288C40.914 263.288 41.324 263.376 41.704 263.552C42.088 263.728 42.42 263.998 42.7 264.362C42.984 264.722 43.206 265.18 43.366 265.736C43.53 266.288 43.612 266.94 43.612 267.692ZM42.4 267.692C42.4 267.044 42.346 266.502 42.238 266.066C42.134 265.63 41.992 265.28 41.812 265.016C41.636 264.748 41.432 264.558 41.2 264.446C40.968 264.334 40.726 264.278 40.474 264.278C40.222 264.278 39.98 264.334 39.748 264.446C39.516 264.558 39.31 264.748 39.13 265.016C38.954 265.28 38.814 265.63 38.71 266.066C38.606 266.502 38.554 267.044 38.554 267.692C38.554 268.34 38.606 268.882 38.71 269.318C38.814 269.754 38.954 270.104 39.13 270.368C39.31 270.632 39.516 270.82 39.748 270.932C39.98 271.044 40.222 271.1 40.474 271.1C40.726 271.1 40.968 271.044 41.2 270.932C41.432 270.82 41.636 270.632 41.812 270.368C41.992 270.104 42.134 269.754 42.238 269.318C42.346 268.882 42.4 268.34 42.4 267.692Z" fill="#676767"/>
<path d="M25.06 55.216C24.324 55.264 23.656 55.44 23.056 55.744C22.456 56.04 21.94 56.448 21.508 56.968C21.084 57.488 20.752 58.116 20.512 58.852C20.28 59.58 20.164 60.404 20.164 61.324C20.164 62.116 20.256 62.836 20.44 63.484C20.624 64.132 20.88 64.704 21.208 65.2C21.536 65.696 21.928 66.116 22.384 66.46C22.84 66.796 23.34 67.048 23.884 67.216L25.06 55.216ZM31.624 67.492C30.92 68.356 30.06 69.02 29.044 69.484C28.036 69.94 26.828 70.176 25.42 70.192L25.252 71.932C25.236 72.116 25.156 72.284 25.012 72.436C24.868 72.596 24.68 72.676 24.448 72.676H23.356L23.608 70.048C22.576 69.864 21.648 69.52 20.824 69.016C20 68.512 19.3 67.88 18.724 67.12C18.156 66.36 17.716 65.492 17.404 64.516C17.1 63.532 16.948 62.468 16.948 61.324C16.948 60.044 17.152 58.868 17.56 57.796C17.968 56.716 18.54 55.784 19.276 55C20.012 54.216 20.892 53.604 21.916 53.164C22.948 52.716 24.084 52.48 25.324 52.456L25.468 50.98C25.484 50.788 25.564 50.616 25.708 50.464C25.852 50.312 26.04 50.236 26.272 50.236H27.364L27.136 52.588C28.032 52.74 28.832 53 29.536 53.368C30.24 53.736 30.856 54.184 31.384 54.712L30.316 56.212C30.244 56.308 30.156 56.392 30.052 56.464C29.956 56.536 29.82 56.572 29.644 56.572C29.5 56.572 29.348 56.524 29.188 56.428C29.036 56.332 28.856 56.216 28.648 56.08C28.448 55.944 28.204 55.808 27.916 55.672C27.628 55.536 27.28 55.424 26.872 55.336L25.684 67.456C26.1 67.448 26.476 67.42 26.812 67.372C27.156 67.316 27.472 67.236 27.76 67.132C28.048 67.028 28.32 66.896 28.576 66.736C28.832 66.576 29.088 66.38 29.344 66.148C29.528 65.988 29.708 65.908 29.884 65.908C30.06 65.908 30.212 65.976 30.34 66.112L31.624 67.492ZM36.5303 57.856C36.5303 58.824 36.7783 59.564 37.2743 60.076C37.7783 60.58 38.4903 60.832 39.4103 60.832C39.8903 60.832 40.3183 60.756 40.6943 60.604C41.0703 60.452 41.3863 60.244 41.6423 59.98C41.8983 59.716 42.0903 59.404 42.2183 59.044C42.3543 58.684 42.4223 58.296 42.4223 57.88C42.4223 57.408 42.3503 56.988 42.2063 56.62C42.0623 56.244 41.8583 55.928 41.5943 55.672C41.3303 55.416 41.0143 55.22 40.6463 55.084C40.2863 54.948 39.8903 54.88 39.4583 54.88C39.0103 54.88 38.6063 54.956 38.2463 55.108C37.8863 55.252 37.5783 55.456 37.3223 55.72C37.0663 55.984 36.8703 56.3 36.7343 56.668C36.5983 57.028 36.5303 57.424 36.5303 57.856ZM40.4663 63.268C40.6023 63.1 40.7303 62.936 40.8503 62.776C40.9703 62.616 41.0863 62.456 41.1983 62.296C40.7983 62.552 40.3583 62.748 39.8783 62.884C39.3983 63.012 38.8943 63.076 38.3663 63.076C37.7663 63.076 37.1783 62.972 36.6023 62.764C36.0263 62.556 35.5143 62.244 35.0663 61.828C34.6183 61.404 34.2543 60.884 33.9743 60.268C33.7023 59.644 33.5663 58.916 33.5663 58.084C33.5663 57.308 33.7103 56.58 33.9983 55.9C34.2863 55.22 34.6903 54.624 35.2103 54.112C35.7303 53.6 36.3543 53.196 37.0823 52.9C37.8103 52.604 38.6143 52.456 39.4943 52.456C40.3823 52.456 41.1783 52.596 41.8823 52.876C42.5943 53.156 43.1983 53.548 43.6943 54.052C44.1983 54.556 44.5823 55.16 44.8463 55.864C45.1183 56.568 45.2543 57.34 45.2543 58.18C45.2543 58.716 45.2063 59.224 45.1103 59.704C45.0223 60.184 44.8943 60.648 44.7263 61.096C44.5583 61.536 44.3543 61.968 44.1143 62.392C43.8743 62.816 43.6063 63.236 43.3103 63.652L39.3383 69.316C39.2023 69.508 38.9983 69.672 38.7263 69.808C38.4543 69.936 38.1463 70 37.8023 70H35.0783L40.4663 63.268ZM53.4522 67.876C53.9402 67.876 54.3682 67.808 54.7362 67.672C55.1042 67.528 55.4122 67.332 55.6602 67.084C55.9162 66.836 56.1082 66.54 56.2362 66.196C56.3642 65.852 56.4282 65.48 56.4282 65.08C56.4282 64.128 56.1642 63.408 55.6362 62.92C55.1082 62.432 54.3802 62.188 53.4522 62.188C52.5242 62.188 51.7962 62.432 51.2682 62.92C50.7402 63.408 50.4762 64.128 50.4762 65.08C50.4762 65.48 50.5402 65.852 50.6682 66.196C50.7962 66.54 50.9842 66.836 51.2322 67.084C51.4882 67.332 51.8002 67.528 52.1682 67.672C52.5362 67.808 52.9642 67.876 53.4522 67.876ZM53.4522 54.688C53.0122 54.688 52.6322 54.756 52.3122 54.892C51.9922 55.028 51.7242 55.212 51.5082 55.444C51.3002 55.668 51.1442 55.928 51.0402 56.224C50.9442 56.52 50.8962 56.832 50.8962 57.16C50.8962 57.504 50.9362 57.84 51.0162 58.168C51.1042 58.488 51.2482 58.776 51.4482 59.032C51.6482 59.28 51.9122 59.48 52.2402 59.632C52.5682 59.784 52.9722 59.86 53.4522 59.86C53.9322 59.86 54.3362 59.784 54.6642 59.632C54.9922 59.48 55.2562 59.28 55.4562 59.032C55.6562 58.776 55.7962 58.488 55.8762 58.168C55.9642 57.84 56.0082 57.504 56.0082 57.16C56.0082 56.832 55.9562 56.52 55.8522 56.224C55.7482 55.928 55.5922 55.668 55.3842 55.444C55.1762 55.212 54.9122 55.028 54.5922 54.892C54.2722 54.756 53.8922 54.688 53.4522 54.688ZM56.3802 60.952C57.4362 61.296 58.2162 61.824 58.7202 62.536C59.2242 63.24 59.4762 64.104 59.4762 65.128C59.4762 65.896 59.3282 66.592 59.0322 67.216C58.7442 67.84 58.3362 68.372 57.8082 68.812C57.2802 69.252 56.6442 69.592 55.9002 69.832C55.1642 70.072 54.3482 70.192 53.4522 70.192C52.5562 70.192 51.7362 70.072 50.9922 69.832C50.2562 69.592 49.6242 69.252 49.0962 68.812C48.5682 68.372 48.1562 67.84 47.8602 67.216C47.5722 66.592 47.4282 65.896 47.4282 65.128C47.4282 64.104 47.6802 63.24 48.1842 62.536C48.6882 61.824 49.4682 61.296 50.5242 60.952C49.6842 60.6 49.0522 60.1 48.6282 59.452C48.2122 58.804 48.0042 58.024 48.0042 57.112C48.0042 56.456 48.1362 55.844 48.4002 55.276C48.6722 54.708 49.0482 54.216 49.5282 53.8C50.0082 53.376 50.5802 53.048 51.2442 52.816C51.9162 52.576 52.6522 52.456 53.4522 52.456C54.2522 52.456 54.9842 52.576 55.6482 52.816C56.3202 53.048 56.8962 53.376 57.3762 53.8C57.8562 54.216 58.2282 54.708 58.4922 55.276C58.7642 55.844 58.9002 56.456 58.9002 57.112C58.9002 58.024 58.6882 58.804 58.2642 59.452C57.8482 60.1 57.2202 60.6 56.3802 60.952ZM64.3741 57.856C64.3741 58.824 64.6221 59.564 65.1181 60.076C65.6221 60.58 66.3341 60.832 67.2541 60.832C67.7341 60.832 68.1621 60.756 68.5381 60.604C68.9141 60.452 69.2301 60.244 69.4861 59.98C69.7421 59.716 69.9341 59.404 70.0621 59.044C70.1981 58.684 70.2661 58.296 70.2661 57.88C70.2661 57.408 70.1941 56.988 70.0501 56.62C69.9061 56.244 69.7021 55.928 69.4381 55.672C69.1741 55.416 68.8581 55.22 68.4901 55.084C68.1301 54.948 67.7341 54.88 67.3021 54.88C66.8541 54.88 66.4501 54.956 66.0901 55.108C65.7301 55.252 65.4221 55.456 65.1661 55.72C64.9101 55.984 64.7141 56.3 64.5781 56.668C64.4421 57.028 64.3741 57.424 64.3741 57.856ZM68.3101 63.268C68.4461 63.1 68.5741 62.936 68.6941 62.776C68.8141 62.616 68.9301 62.456 69.0421 62.296C68.6421 62.552 68.2021 62.748 67.7221 62.884C67.2421 63.012 66.7381 63.076 66.2101 63.076C65.6101 63.076 65.0221 62.972 64.4461 62.764C63.8701 62.556 63.3581 62.244 62.9101 61.828C62.4621 61.404 62.0981 60.884 61.8181 60.268C61.5461 59.644 61.4101 58.916 61.4101 58.084C61.4101 57.308 61.5541 56.58 61.8421 55.9C62.1301 55.22 62.5341 54.624 63.0541 54.112C63.5741 53.6 64.1981 53.196 64.9261 52.9C65.6541 52.604 66.4581 52.456 67.3381 52.456C68.2261 52.456 69.0221 52.596 69.7261 52.876C70.4381 53.156 71.0421 53.548 71.5381 54.052C72.0421 54.556 72.4261 55.16 72.6901 55.864C72.9621 56.568 73.0981 57.34 73.0981 58.18C73.0981 58.716 73.0501 59.224 72.9541 59.704C72.8661 60.184 72.7381 60.648 72.5701 61.096C72.4021 61.536 72.1981 61.968 71.9581 62.392C71.7181 62.816 71.4501 63.236 71.1541 63.652L67.1821 69.316C67.0461 69.508 66.8421 69.672 66.5701 69.808C66.2981 69.936 65.9901 70 65.6461 70H62.9221L68.3101 63.268ZM75.3679 68.368C75.3679 68.12 75.4119 67.884 75.4999 67.66C75.5959 67.436 75.7239 67.244 75.8839 67.084C76.0439 66.924 76.2359 66.796 76.4599 66.7C76.6839 66.604 76.9239 66.556 77.1799 66.556C77.4359 66.556 77.6719 66.604 77.8879 66.7C78.1119 66.796 78.3039 66.924 78.4639 67.084C78.6319 67.244 78.7639 67.436 78.8599 67.66C78.9559 67.884 79.0039 68.12 79.0039 68.368C79.0039 68.624 78.9559 68.864 78.8599 69.088C78.7639 69.304 78.6319 69.492 78.4639 69.652C78.3039 69.812 78.1119 69.936 77.8879 70.024C77.6719 70.12 77.4359 70.168 77.1799 70.168C76.9239 70.168 76.6839 70.12 76.4599 70.024C76.2359 69.936 76.0439 69.812 75.8839 69.652C75.7239 69.492 75.5959 69.304 75.4999 69.088C75.4119 68.864 75.3679 68.624 75.3679 68.368ZM88.5753 63.46V57.784C88.5753 57.248 88.6113 56.656 88.6833 56.008L83.2953 63.46H88.5753ZM93.3393 63.46V65.176C93.3393 65.336 93.2873 65.476 93.1833 65.596C93.0793 65.708 92.9313 65.764 92.7393 65.764H91.1553V70H88.5753V65.764H81.2553C81.0553 65.764 80.8793 65.704 80.7273 65.584C80.5753 65.456 80.4793 65.3 80.4393 65.116L80.1273 63.616L88.3473 52.636H91.1553V63.46H93.3393ZM99.1131 59.92H99.8691C100.173 59.92 100.425 59.88 100.625 59.8C100.825 59.712 100.997 59.576 101.141 59.392L105.929 53.332C106.129 53.076 106.337 52.9 106.553 52.804C106.777 52.7 107.057 52.648 107.393 52.648H110.177L104.333 59.86C103.989 60.3 103.633 60.612 103.265 60.796C103.529 60.892 103.765 61.028 103.973 61.204C104.189 61.372 104.393 61.596 104.585 61.876L110.609 70H107.765C107.381 70 107.093 69.948 106.901 69.844C106.717 69.732 106.561 69.572 106.433 69.364L101.525 62.956C101.373 62.74 101.197 62.588 100.997 62.5C100.797 62.412 100.509 62.368 100.133 62.368H99.1131V70H95.8851V52.648H99.1131V59.92Z" fill="#292929"/>
<path d="M583.732 21.144C583.732 21.568 583.632 21.968 583.432 22.344C583.232 22.72 582.912 23.028 582.472 23.268C582.032 23.5 581.468 23.616 580.78 23.616H579.268V27H577.9V18.66H580.78C581.42 18.66 581.96 18.772 582.4 18.996C582.848 19.212 583.18 19.508 583.396 19.884C583.62 20.26 583.732 20.68 583.732 21.144ZM580.78 22.5C581.3 22.5 581.688 22.384 581.944 22.152C582.2 21.912 582.328 21.576 582.328 21.144C582.328 20.232 581.812 19.776 580.78 19.776H579.268V22.5H580.78ZM586.405 21.348C586.605 21.012 586.869 20.752 587.197 20.568C587.533 20.376 587.929 20.28 588.385 20.28V21.696H588.037C587.501 21.696 587.093 21.832 586.813 22.104C586.541 22.376 586.405 22.848 586.405 23.52V27H585.037V20.388H586.405V21.348ZM592.51 27.108C591.886 27.108 591.322 26.968 590.818 26.688C590.314 26.4 589.918 26 589.63 25.488C589.342 24.968 589.198 24.368 589.198 23.688C589.198 23.016 589.346 22.42 589.642 21.9C589.938 21.38 590.342 20.98 590.854 20.7C591.366 20.42 591.938 20.28 592.57 20.28C593.202 20.28 593.774 20.42 594.286 20.7C594.798 20.98 595.202 21.38 595.498 21.9C595.794 22.42 595.942 23.016 595.942 23.688C595.942 24.36 595.79 24.956 595.486 25.476C595.182 25.996 594.766 26.4 594.238 26.688C593.718 26.968 593.142 27.108 592.51 27.108ZM592.51 25.92C592.862 25.92 593.19 25.836 593.494 25.668C593.806 25.5 594.058 25.248 594.25 24.912C594.442 24.576 594.538 24.168 594.538 23.688C594.538 23.208 594.446 22.804 594.262 22.476C594.078 22.14 593.834 21.888 593.53 21.72C593.226 21.552 592.898 21.468 592.546 21.468C592.194 21.468 591.866 21.552 591.562 21.72C591.266 21.888 591.03 22.14 590.854 22.476C590.678 22.804 590.59 23.208 590.59 23.688C590.59 24.4 590.77 24.952 591.13 25.344C591.498 25.728 591.958 25.92 592.51 25.92ZM600.067 21.504H598.843V27H597.463V21.504H596.683V20.388H597.463V19.92C597.463 19.16 597.663 18.608 598.063 18.264C598.471 17.912 599.107 17.736 599.971 17.736V18.876C599.555 18.876 599.263 18.956 599.095 19.116C598.927 19.268 598.843 19.536 598.843 19.92V20.388H600.067V21.504ZM601.975 19.512C601.727 19.512 601.519 19.428 601.351 19.26C601.183 19.092 601.099 18.884 601.099 18.636C601.099 18.388 601.183 18.18 601.351 18.012C601.519 17.844 601.727 17.76 601.975 17.76C602.215 17.76 602.419 17.844 602.587 18.012C602.755 18.18 602.839 18.388 602.839 18.636C602.839 18.884 602.755 19.092 602.587 19.26C602.419 19.428 602.215 19.512 601.975 19.512ZM602.647 20.388V27H601.279V20.388H602.647ZM606.039 21.504V25.164C606.039 25.412 606.095 25.592 606.207 25.704C606.327 25.808 606.527 25.86 606.807 25.86H607.647V27H606.567C605.951 27 605.479 26.856 605.151 26.568C604.823 26.28 604.659 25.812 604.659 25.164V21.504H603.879V20.388H604.659V18.744H606.039V20.388H607.647V21.504H606.039Z" fill="#676767"/>
<circle cx="566.5" cy="22.5" r="4.5" fill="#57BE3B"/>
<path d="M646.268 25.896H649.088V27H644.9V18.66H646.268V25.896ZM653.1 27.108C652.476 27.108 651.912 26.968 651.408 26.688C650.904 26.4 650.508 26 650.22 25.488C649.932 24.968 649.788 24.368 649.788 23.688C649.788 23.016 649.936 22.42 650.232 21.9C650.528 21.38 650.932 20.98 651.444 20.7C651.956 20.42 652.528 20.28 653.16 20.28C653.792 20.28 654.364 20.42 654.876 20.7C655.388 20.98 655.792 21.38 656.088 21.9C656.384 22.42 656.532 23.016 656.532 23.688C656.532 24.36 656.38 24.956 656.076 25.476C655.772 25.996 655.356 26.4 654.828 26.688C654.308 26.968 653.732 27.108 653.1 27.108ZM653.1 25.92C653.452 25.92 653.78 25.836 654.084 25.668C654.396 25.5 654.648 25.248 654.84 24.912C655.032 24.576 655.128 24.168 655.128 23.688C655.128 23.208 655.036 22.804 654.852 22.476C654.668 22.14 654.424 21.888 654.12 21.72C653.816 21.552 653.488 21.468 653.136 21.468C652.784 21.468 652.456 21.552 652.152 21.72C651.856 21.888 651.62 22.14 651.444 22.476C651.268 22.804 651.18 23.208 651.18 23.688C651.18 24.4 651.36 24.952 651.72 25.344C652.088 25.728 652.548 25.92 653.1 25.92ZM660.284 27.108C659.764 27.108 659.296 27.016 658.88 26.832C658.472 26.64 658.148 26.384 657.908 26.064C657.668 25.736 657.54 25.372 657.524 24.972H658.94C658.964 25.252 659.096 25.488 659.336 25.68C659.584 25.864 659.892 25.956 660.26 25.956C660.644 25.956 660.94 25.884 661.148 25.74C661.364 25.588 661.472 25.396 661.472 25.164C661.472 24.916 661.352 24.732 661.112 24.612C660.88 24.492 660.508 24.36 659.996 24.216C659.5 24.08 659.096 23.948 658.784 23.82C658.472 23.692 658.2 23.496 657.968 23.232C657.744 22.968 657.632 22.62 657.632 22.188C657.632 21.836 657.736 21.516 657.944 21.228C658.152 20.932 658.448 20.7 658.832 20.532C659.224 20.364 659.672 20.28 660.176 20.28C660.928 20.28 661.532 20.472 661.988 20.856C662.452 21.232 662.7 21.748 662.732 22.404H661.364C661.34 22.108 661.22 21.872 661.004 21.696C660.788 21.52 660.496 21.432 660.128 21.432C659.768 21.432 659.492 21.5 659.3 21.636C659.108 21.772 659.012 21.952 659.012 22.176C659.012 22.352 659.076 22.5 659.204 22.62C659.332 22.74 659.488 22.836 659.672 22.908C659.856 22.972 660.128 23.056 660.488 23.16C660.968 23.288 661.36 23.42 661.664 23.556C661.976 23.684 662.244 23.876 662.468 24.132C662.692 24.388 662.808 24.728 662.816 25.152C662.816 25.528 662.712 25.864 662.504 26.16C662.296 26.456 662 26.688 661.616 26.856C661.24 27.024 660.796 27.108 660.284 27.108ZM666.695 27.108C666.175 27.108 665.707 27.016 665.291 26.832C664.883 26.64 664.559 26.384 664.319 26.064C664.079 25.736 663.951 25.372 663.935 24.972H665.351C665.375 25.252 665.507 25.488 665.747 25.68C665.995 25.864 666.303 25.956 666.671 25.956C667.055 25.956 667.351 25.884 667.559 25.74C667.775 25.588 667.883 25.396 667.883 25.164C667.883 24.916 667.763 24.732 667.523 24.612C667.291 24.492 666.919 24.36 666.407 24.216C665.911 24.08 665.507 23.948 665.195 23.82C664.883 23.692 664.611 23.496 664.379 23.232C664.155 22.968 664.043 22.62 664.043 22.188C664.043 21.836 664.147 21.516 664.355 21.228C664.563 20.932 664.859 20.7 665.243 20.532C665.635 20.364 666.083 20.28 666.587 20.28C667.339 20.28 667.943 20.472 668.399 20.856C668.863 21.232 669.111 21.748 669.143 22.404H667.775C667.751 22.108 667.631 21.872 667.415 21.696C667.199 21.52 666.907 21.432 666.539 21.432C666.179 21.432 665.903 21.5 665.711 21.636C665.519 21.772 665.423 21.952 665.423 22.176C665.423 22.352 665.487 22.5 665.615 22.62C665.743 22.74 665.899 22.836 666.083 22.908C666.267 22.972 666.539 23.056 666.899 23.16C667.379 23.288 667.771 23.42 668.075 23.556C668.387 23.684 668.655 23.876 668.879 24.132C669.103 24.388 669.219 24.728 669.227 25.152C669.227 25.528 669.123 25.864 668.915 26.16C668.707 26.456 668.411 26.688 668.027 26.856C667.651 27.024 667.207 27.108 666.695 27.108Z" fill="#676767"/>
<circle cx="633.5" cy="22.5" r="4.5" fill="#E3E7FC"/>
<path d="M115.53 54.4697C115.237 54.1768 114.763 54.1768 114.47 54.4697L109.697 59.2426C109.404 59.5355 109.404 60.0104 109.697 60.3033C109.99 60.5962 110.464 60.5962 110.757 60.3033L115 56.0607L119.243 60.3033C119.536 60.5962 120.01 60.5962 120.303 60.3033C120.596 60.0104 120.596 59.5355 120.303 59.2426L115.53 54.4697ZM115 68L115.75 68L115.75 55L115 55L114.25 55L114.25 68L115 68Z" fill="#4CE13F"/>
<path d="M80.116 288C80.116 288.48 80.056 288.912 79.936 289.296C79.816 289.68 79.64 290.006 79.408 290.274C79.18 290.538 78.894 290.742 78.55 290.886C78.21 291.026 77.818 291.096 77.374 291.096C76.974 291.096 76.562 291.04 76.138 290.928L76.21 290.172C76.218 290.1 76.244 290.042 76.288 289.998C76.336 289.95 76.406 289.926 76.498 289.926C76.566 289.926 76.658 289.944 76.774 289.98C76.894 290.012 77.05 290.028 77.242 290.028C77.498 290.028 77.724 289.99 77.92 289.914C78.12 289.838 78.288 289.72 78.424 289.56C78.56 289.396 78.662 289.188 78.73 288.936C78.802 288.684 78.838 288.382 78.838 288.03V282.384H80.116V288ZM84.9613 288.294C84.4853 288.31 84.0813 288.348 83.7493 288.408C83.4173 288.464 83.1473 288.54 82.9393 288.636C82.7313 288.732 82.5813 288.846 82.4893 288.978C82.3973 289.106 82.3513 289.25 82.3513 289.41C82.3513 289.562 82.3753 289.694 82.4233 289.806C82.4753 289.914 82.5433 290.004 82.6273 290.076C82.7153 290.144 82.8173 290.194 82.9333 290.226C83.0493 290.258 83.1753 290.274 83.3113 290.274C83.4913 290.274 83.6553 290.256 83.8033 290.22C83.9553 290.184 84.0973 290.134 84.2293 290.07C84.3613 290.002 84.4873 289.92 84.6073 289.824C84.7273 289.728 84.8453 289.618 84.9613 289.494V288.294ZM81.5293 285.756C81.8693 285.432 82.2373 285.19 82.6333 285.03C83.0333 284.87 83.4713 284.79 83.9473 284.79C84.2953 284.79 84.6033 284.848 84.8713 284.964C85.1393 285.076 85.3653 285.234 85.5493 285.438C85.7333 285.642 85.8713 285.886 85.9633 286.17C86.0593 286.454 86.1073 286.768 86.1073 287.112V291H85.5853C85.4693 291 85.3813 290.982 85.3213 290.946C85.2613 290.906 85.2133 290.834 85.1773 290.73L85.0513 290.196C84.8953 290.34 84.7413 290.468 84.5893 290.58C84.4373 290.688 84.2773 290.782 84.1093 290.862C83.9453 290.938 83.7693 290.996 83.5813 291.036C83.3933 291.076 83.1853 291.096 82.9573 291.096C82.7173 291.096 82.4913 291.064 82.2793 291C82.0713 290.932 81.8893 290.83 81.7333 290.694C81.5773 290.558 81.4533 290.388 81.3613 290.184C81.2733 289.98 81.2293 289.742 81.2293 289.47C81.2293 289.23 81.2933 289 81.4213 288.78C81.5533 288.556 81.7653 288.356 82.0573 288.18C82.3533 288.004 82.7373 287.86 83.2093 287.748C83.6853 287.636 84.2693 287.572 84.9613 287.556V287.112C84.9613 286.652 84.8633 286.308 84.6673 286.08C84.4713 285.852 84.1833 285.738 83.8033 285.738C83.5473 285.738 83.3313 285.77 83.1553 285.834C82.9833 285.898 82.8333 285.97 82.7053 286.05C82.5813 286.126 82.4713 286.196 82.3753 286.26C82.2833 286.324 82.1873 286.356 82.0873 286.356C82.0073 286.356 81.9373 286.334 81.8773 286.29C81.8213 286.246 81.7753 286.194 81.7393 286.134L81.5293 285.756ZM88.7716 285.75C88.9036 285.61 89.0416 285.482 89.1856 285.366C89.3296 285.25 89.4816 285.152 89.6416 285.072C89.8056 284.988 89.9796 284.924 90.1636 284.88C90.3516 284.832 90.5516 284.808 90.7636 284.808C91.0996 284.808 91.3936 284.864 91.6456 284.976C91.9016 285.088 92.1156 285.246 92.2876 285.45C92.4596 285.65 92.5896 285.892 92.6776 286.176C92.7656 286.46 92.8096 286.774 92.8096 287.118V291H91.6336V287.118C91.6336 286.682 91.5336 286.344 91.3336 286.104C91.1336 285.86 90.8276 285.738 90.4156 285.738C90.1156 285.738 89.8336 285.81 89.5696 285.954C89.3096 286.094 89.0676 286.286 88.8436 286.53V291H87.6736V284.904H88.3756C88.5396 284.904 88.6416 284.982 88.6816 285.138L88.7716 285.75Z" fill="#676767"/>
<rect x="62" y="113" width="21" height="159" rx="3" fill="#57BE3B"/>
<rect x="87" y="164" width="21" height="108" rx="3" fill="#E3E7FC"/>
<path d="M145.346 283.422V286.308H148.802V287.346H145.346V291H144.062V282.384H149.402V283.422H145.346ZM154.118 287.274C154.118 287.042 154.084 286.828 154.016 286.632C153.952 286.436 153.856 286.266 153.728 286.122C153.6 285.978 153.444 285.866 153.26 285.786C153.076 285.706 152.864 285.666 152.624 285.666C152.132 285.666 151.744 285.808 151.46 286.092C151.18 286.376 151.002 286.77 150.926 287.274H154.118ZM155.084 290.13C154.94 290.298 154.774 290.444 154.586 290.568C154.398 290.688 154.198 290.786 153.986 290.862C153.774 290.938 153.554 290.994 153.326 291.03C153.102 291.066 152.88 291.084 152.66 291.084C152.24 291.084 151.85 291.014 151.49 290.874C151.134 290.73 150.824 290.522 150.56 290.25C150.3 289.974 150.096 289.634 149.948 289.23C149.804 288.822 149.732 288.354 149.732 287.826C149.732 287.402 149.798 287.008 149.93 286.644C150.062 286.276 150.25 285.956 150.494 285.684C150.742 285.412 151.044 285.198 151.4 285.042C151.756 284.886 152.156 284.808 152.6 284.808C152.972 284.808 153.314 284.87 153.626 284.994C153.942 285.114 154.214 285.29 154.442 285.522C154.67 285.754 154.848 286.04 154.976 286.38C155.108 286.72 155.174 287.108 155.174 287.544C155.174 287.724 155.154 287.846 155.114 287.91C155.074 287.97 155 288 154.892 288H150.896C150.908 288.364 150.96 288.682 151.052 288.954C151.144 289.222 151.27 289.446 151.43 289.626C151.594 289.806 151.788 289.94 152.012 290.028C152.236 290.116 152.486 290.16 152.762 290.16C153.022 290.16 153.246 290.13 153.434 290.07C153.626 290.01 153.79 289.946 153.926 289.878C154.066 289.806 154.182 289.74 154.274 289.68C154.37 289.62 154.454 289.59 154.526 289.59C154.622 289.59 154.696 289.626 154.748 289.698L155.084 290.13ZM157.601 289.5C157.793 289.752 158.001 289.928 158.225 290.028C158.449 290.128 158.693 290.178 158.957 290.178C159.501 290.178 159.919 289.984 160.211 289.596C160.507 289.208 160.655 288.622 160.655 287.838C160.655 287.114 160.525 286.584 160.265 286.248C160.005 285.908 159.637 285.738 159.161 285.738C158.825 285.738 158.533 285.814 158.285 285.966C158.041 286.118 157.813 286.334 157.601 286.614V289.5ZM157.601 285.744C157.853 285.464 158.139 285.238 158.459 285.066C158.779 284.894 159.143 284.808 159.551 284.808C159.907 284.808 160.227 284.878 160.511 285.018C160.799 285.154 161.043 285.352 161.243 285.612C161.443 285.868 161.597 286.18 161.705 286.548C161.813 286.916 161.867 287.332 161.867 287.796C161.867 288.288 161.805 288.736 161.681 289.14C161.561 289.544 161.387 289.89 161.159 290.178C160.935 290.466 160.661 290.69 160.337 290.85C160.013 291.006 159.649 291.084 159.245 291.084C159.049 291.084 158.869 291.064 158.705 291.024C158.541 290.988 158.389 290.934 158.249 290.862C158.113 290.79 157.987 290.702 157.871 290.598C157.755 290.494 157.645 290.376 157.541 290.244L157.487 290.754C157.455 290.918 157.355 291 157.187 291H156.431V282.144H157.601V285.744Z" fill="#676767"/>
<rect x="129" y="143" width="21" height="129" rx="3" fill="#57BE3B"/>
<rect x="154" y="184" width="21" height="88" rx="3" fill="#E3E7FC"/>
<path d="M220.122 282.384V291H219.006V284.868C219.006 284.776 219.008 284.678 219.012 284.574C219.02 284.47 219.028 284.364 219.036 284.256L216.168 289.518C216.068 289.714 215.914 289.812 215.706 289.812H215.526C215.318 289.812 215.166 289.714 215.07 289.518L212.148 284.238C212.172 284.462 212.184 284.672 212.184 284.868V291H211.062V282.384H212.01C212.122 282.384 212.208 282.396 212.268 282.42C212.332 282.44 212.392 282.5 212.448 282.6L215.328 287.76C215.384 287.864 215.436 287.974 215.484 288.09C215.532 288.206 215.578 288.322 215.622 288.438C215.706 288.202 215.804 287.974 215.916 287.754L218.742 282.6C218.794 282.5 218.85 282.44 218.91 282.42C218.974 282.396 219.062 282.384 219.174 282.384H220.122ZM225.114 288.294C224.638 288.31 224.234 288.348 223.902 288.408C223.57 288.464 223.3 288.54 223.092 288.636C222.884 288.732 222.734 288.846 222.642 288.978C222.55 289.106 222.504 289.25 222.504 289.41C222.504 289.562 222.528 289.694 222.576 289.806C222.628 289.914 222.696 290.004 222.78 290.076C222.868 290.144 222.97 290.194 223.086 290.226C223.202 290.258 223.328 290.274 223.464 290.274C223.644 290.274 223.808 290.256 223.956 290.22C224.108 290.184 224.25 290.134 224.382 290.07C224.514 290.002 224.64 289.92 224.76 289.824C224.88 289.728 224.998 289.618 225.114 289.494V288.294ZM221.682 285.756C222.022 285.432 222.39 285.19 222.786 285.03C223.186 284.87 223.624 284.79 224.1 284.79C224.448 284.79 224.756 284.848 225.024 284.964C225.292 285.076 225.518 285.234 225.702 285.438C225.886 285.642 226.024 285.886 226.116 286.17C226.212 286.454 226.26 286.768 226.26 287.112V291H225.738C225.622 291 225.534 290.982 225.474 290.946C225.414 290.906 225.366 290.834 225.33 290.73L225.204 290.196C225.048 290.34 224.894 290.468 224.742 290.58C224.59 290.688 224.43 290.782 224.262 290.862C224.098 290.938 223.922 290.996 223.734 291.036C223.546 291.076 223.338 291.096 223.11 291.096C222.87 291.096 222.644 291.064 222.432 291C222.224 290.932 222.042 290.83 221.886 290.694C221.73 290.558 221.606 290.388 221.514 290.184C221.426 289.98 221.382 289.742 221.382 289.47C221.382 289.23 221.446 289 221.574 288.78C221.706 288.556 221.918 288.356 222.21 288.18C222.506 288.004 222.89 287.86 223.362 287.748C223.838 287.636 224.422 287.572 225.114 287.556V287.112C225.114 286.652 225.016 286.308 224.82 286.08C224.624 285.852 224.336 285.738 223.956 285.738C223.7 285.738 223.484 285.77 223.308 285.834C223.136 285.898 222.986 285.97 222.858 286.05C222.734 286.126 222.624 286.196 222.528 286.26C222.436 286.324 222.34 286.356 222.24 286.356C222.16 286.356 222.09 286.334 222.03 286.29C221.974 286.246 221.928 286.194 221.892 286.134L221.682 285.756ZM228.93 286.074C229.126 285.674 229.362 285.36 229.638 285.132C229.914 284.904 230.246 284.79 230.634 284.79C230.766 284.79 230.89 284.806 231.006 284.838C231.126 284.866 231.23 284.91 231.318 284.97L231.24 285.852C231.212 285.96 231.146 286.014 231.042 286.014C230.986 286.014 230.902 286.004 230.79 285.984C230.678 285.96 230.558 285.948 230.43 285.948C230.242 285.948 230.076 285.976 229.932 286.032C229.788 286.084 229.658 286.164 229.542 286.272C229.43 286.376 229.33 286.506 229.242 286.662C229.154 286.814 229.072 286.988 228.996 287.184V291H227.826V284.904H228.498C228.626 284.904 228.712 284.928 228.756 284.976C228.804 285.02 228.838 285.1 228.858 285.216L228.93 286.074Z" fill="#676767"/>
<rect x="196" y="137" width="21" height="135" rx="3" fill="#57BE3B"/>
<rect x="221" y="217" width="21" height="55" rx="3" fill="#E3E7FC"/>
<path d="M282.64 287.79L281.362 284.448C281.27 284.22 281.178 283.932 281.086 283.584C281.042 283.756 280.996 283.916 280.948 284.064C280.904 284.212 280.86 284.344 280.816 284.46L279.544 287.79H282.64ZM285.166 291H284.182C284.07 291 283.978 290.972 283.906 290.916C283.834 290.86 283.782 290.788 283.75 290.7L282.988 288.702H279.19L278.428 290.7C278.4 290.776 278.348 290.846 278.272 290.91C278.196 290.97 278.104 291 277.996 291H277.012L280.444 282.384H281.734L285.166 291ZM287.148 289.5C287.34 289.752 287.546 289.928 287.766 290.028C287.99 290.128 288.24 290.178 288.516 290.178C289.052 290.178 289.466 289.986 289.758 289.602C290.054 289.214 290.202 288.65 290.202 287.91C290.202 287.522 290.168 287.192 290.1 286.92C290.036 286.644 289.94 286.42 289.812 286.248C289.688 286.072 289.534 285.944 289.35 285.864C289.166 285.78 288.958 285.738 288.726 285.738C288.386 285.738 288.09 285.814 287.838 285.966C287.59 286.118 287.36 286.334 287.148 286.614V289.5ZM287.088 285.816C287.216 285.664 287.352 285.526 287.496 285.402C287.644 285.274 287.802 285.166 287.97 285.078C288.138 284.986 288.316 284.916 288.504 284.868C288.696 284.816 288.9 284.79 289.116 284.79C289.464 284.79 289.778 284.858 290.058 284.994C290.342 285.13 290.584 285.33 290.784 285.594C290.984 285.858 291.138 286.184 291.246 286.572C291.358 286.96 291.414 287.406 291.414 287.91C291.414 288.362 291.352 288.782 291.228 289.17C291.108 289.554 290.934 289.888 290.706 290.172C290.482 290.456 290.206 290.68 289.878 290.844C289.554 291.004 289.188 291.084 288.78 291.084C288.416 291.084 288.104 291.024 287.844 290.904C287.584 290.784 287.352 290.616 287.148 290.4V293.046H285.978V284.904H286.68C286.844 284.904 286.946 284.982 286.986 285.138L287.088 285.816ZM293.832 286.074C294.028 285.674 294.264 285.36 294.54 285.132C294.816 284.904 295.148 284.79 295.536 284.79C295.668 284.79 295.792 284.806 295.908 284.838C296.028 284.866 296.132 284.91 296.22 284.97L296.142 285.852C296.114 285.96 296.048 286.014 295.944 286.014C295.888 286.014 295.804 286.004 295.692 285.984C295.58 285.96 295.46 285.948 295.332 285.948C295.144 285.948 294.978 285.976 294.834 286.032C294.69 286.084 294.56 286.164 294.444 286.272C294.332 286.376 294.232 286.506 294.144 286.662C294.056 286.814 293.974 286.988 293.898 287.184V291H292.728V284.904H293.4C293.528 284.904 293.614 284.928 293.658 284.976C293.706 285.02 293.74 285.1 293.76 285.216L293.832 286.074Z" fill="#676767"/>
<rect x="263" y="159" width="21" height="113" rx="3" fill="#57BE3B"/>
<rect x="288" y="130" width="21" height="142" rx="3" fill="#E3E7FC"/>
<path d="M354.122 282.384V291H353.006V284.868C353.006 284.776 353.008 284.678 353.012 284.574C353.02 284.47 353.028 284.364 353.036 284.256L350.168 289.518C350.068 289.714 349.914 289.812 349.706 289.812H349.526C349.318 289.812 349.166 289.714 349.07 289.518L346.148 284.238C346.172 284.462 346.184 284.672 346.184 284.868V291H345.062V282.384H346.01C346.122 282.384 346.208 282.396 346.268 282.42C346.332 282.44 346.392 282.5 346.448 282.6L349.328 287.76C349.384 287.864 349.436 287.974 349.484 288.09C349.532 288.206 349.578 288.322 349.622 288.438C349.706 288.202 349.804 287.974 349.916 287.754L352.742 282.6C352.794 282.5 352.85 282.44 352.91 282.42C352.974 282.396 353.062 282.384 353.174 282.384H354.122ZM359.114 288.294C358.638 288.31 358.234 288.348 357.902 288.408C357.57 288.464 357.3 288.54 357.092 288.636C356.884 288.732 356.734 288.846 356.642 288.978C356.55 289.106 356.504 289.25 356.504 289.41C356.504 289.562 356.528 289.694 356.576 289.806C356.628 289.914 356.696 290.004 356.78 290.076C356.868 290.144 356.97 290.194 357.086 290.226C357.202 290.258 357.328 290.274 357.464 290.274C357.644 290.274 357.808 290.256 357.956 290.22C358.108 290.184 358.25 290.134 358.382 290.07C358.514 290.002 358.64 289.92 358.76 289.824C358.88 289.728 358.998 289.618 359.114 289.494V288.294ZM355.682 285.756C356.022 285.432 356.39 285.19 356.786 285.03C357.186 284.87 357.624 284.79 358.1 284.79C358.448 284.79 358.756 284.848 359.024 284.964C359.292 285.076 359.518 285.234 359.702 285.438C359.886 285.642 360.024 285.886 360.116 286.17C360.212 286.454 360.26 286.768 360.26 287.112V291H359.738C359.622 291 359.534 290.982 359.474 290.946C359.414 290.906 359.366 290.834 359.33 290.73L359.204 290.196C359.048 290.34 358.894 290.468 358.742 290.58C358.59 290.688 358.43 290.782 358.262 290.862C358.098 290.938 357.922 290.996 357.734 291.036C357.546 291.076 357.338 291.096 357.11 291.096C356.87 291.096 356.644 291.064 356.432 291C356.224 290.932 356.042 290.83 355.886 290.694C355.73 290.558 355.606 290.388 355.514 290.184C355.426 289.98 355.382 289.742 355.382 289.47C355.382 289.23 355.446 289 355.574 288.78C355.706 288.556 355.918 288.356 356.21 288.18C356.506 288.004 356.89 287.86 357.362 287.748C357.838 287.636 358.422 287.572 359.114 287.556V287.112C359.114 286.652 359.016 286.308 358.82 286.08C358.624 285.852 358.336 285.738 357.956 285.738C357.7 285.738 357.484 285.77 357.308 285.834C357.136 285.898 356.986 285.97 356.858 286.05C356.734 286.126 356.624 286.196 356.528 286.26C356.436 286.324 356.34 286.356 356.24 286.356C356.16 286.356 356.09 286.334 356.03 286.29C355.974 286.246 355.928 286.194 355.892 286.134L355.682 285.756ZM367.002 284.904L363.618 292.77C363.582 292.858 363.534 292.926 363.474 292.974C363.414 293.022 363.326 293.046 363.21 293.046H362.34L363.456 290.616L360.954 284.904H361.974C362.074 284.904 362.152 284.928 362.208 284.976C362.264 285.024 362.304 285.078 362.328 285.138L363.876 288.798C363.908 288.89 363.938 288.984 363.966 289.08C363.998 289.172 364.024 289.264 364.044 289.356C364.072 289.26 364.102 289.166 364.134 289.074C364.166 288.978 364.2 288.884 364.236 288.792L365.73 285.138C365.758 285.07 365.802 285.014 365.862 284.97C365.922 284.926 365.99 284.904 366.066 284.904H367.002Z" fill="#676767"/>
<rect x="330" y="143" width="21" height="129" rx="3" fill="#57BE3B"/>
<rect x="355" y="184" width="21" height="88" rx="3" fill="#E3E7FC"/>
<path d="M415.116 288C415.116 288.48 415.056 288.912 414.936 289.296C414.816 289.68 414.64 290.006 414.408 290.274C414.18 290.538 413.894 290.742 413.55 290.886C413.21 291.026 412.818 291.096 412.374 291.096C411.974 291.096 411.562 291.04 411.138 290.928L411.21 290.172C411.218 290.1 411.244 290.042 411.288 289.998C411.336 289.95 411.406 289.926 411.498 289.926C411.566 289.926 411.658 289.944 411.774 289.98C411.894 290.012 412.05 290.028 412.242 290.028C412.498 290.028 412.724 289.99 412.92 289.914C413.12 289.838 413.288 289.72 413.424 289.56C413.56 289.396 413.662 289.188 413.73 288.936C413.802 288.684 413.838 288.382 413.838 288.03V282.384H415.116V288ZM421.826 284.904V291H421.124C420.964 291 420.86 290.922 420.812 290.766L420.728 290.154C420.596 290.294 420.458 290.422 420.314 290.538C420.17 290.654 420.016 290.754 419.852 290.838C419.688 290.918 419.514 290.98 419.33 291.024C419.146 291.072 418.948 291.096 418.736 291.096C418.4 291.096 418.104 291.04 417.848 290.928C417.596 290.816 417.384 290.66 417.212 290.46C417.04 290.256 416.91 290.012 416.822 289.728C416.734 289.444 416.69 289.13 416.69 288.786V284.904H417.866V288.786C417.866 289.222 417.966 289.562 418.166 289.806C418.366 290.046 418.672 290.166 419.084 290.166C419.384 290.166 419.664 290.096 419.924 289.956C420.184 289.812 420.428 289.616 420.656 289.368V284.904H421.826ZM424.557 285.75C424.689 285.61 424.827 285.482 424.971 285.366C425.115 285.25 425.267 285.152 425.427 285.072C425.591 284.988 425.765 284.924 425.949 284.88C426.137 284.832 426.337 284.808 426.549 284.808C426.885 284.808 427.179 284.864 427.431 284.976C427.687 285.088 427.901 285.246 428.073 285.45C428.245 285.65 428.375 285.892 428.463 286.176C428.551 286.46 428.595 286.774 428.595 287.118V291H427.419V287.118C427.419 286.682 427.319 286.344 427.119 286.104C426.919 285.86 426.613 285.738 426.201 285.738C425.901 285.738 425.619 285.81 425.355 285.954C425.095 286.094 424.853 286.286 424.629 286.53V291H423.459V284.904H424.161C424.325 284.904 424.427 284.982 424.467 285.138L424.557 285.75Z" fill="#676767"/>
<rect x="397" y="201" width="21" height="71" rx="3" fill="#57BE3B"/>
<rect x="422" y="224" width="21" height="48" rx="3" fill="#E3E7FC"/>
<path d="M482.116 288C482.116 288.48 482.056 288.912 481.936 289.296C481.816 289.68 481.64 290.006 481.408 290.274C481.18 290.538 480.894 290.742 480.55 290.886C480.21 291.026 479.818 291.096 479.374 291.096C478.974 291.096 478.562 291.04 478.138 290.928L478.21 290.172C478.218 290.1 478.244 290.042 478.288 289.998C478.336 289.95 478.406 289.926 478.498 289.926C478.566 289.926 478.658 289.944 478.774 289.98C478.894 290.012 479.05 290.028 479.242 290.028C479.498 290.028 479.724 289.99 479.92 289.914C480.12 289.838 480.288 289.72 480.424 289.56C480.56 289.396 480.662 289.188 480.73 288.936C480.802 288.684 480.838 288.382 480.838 288.03V282.384H482.116V288ZM488.826 284.904V291H488.124C487.964 291 487.86 290.922 487.812 290.766L487.728 290.154C487.596 290.294 487.458 290.422 487.314 290.538C487.17 290.654 487.016 290.754 486.852 290.838C486.688 290.918 486.514 290.98 486.33 291.024C486.146 291.072 485.948 291.096 485.736 291.096C485.4 291.096 485.104 291.04 484.848 290.928C484.596 290.816 484.384 290.66 484.212 290.46C484.04 290.256 483.91 290.012 483.822 289.728C483.734 289.444 483.69 289.13 483.69 288.786V284.904H484.866V288.786C484.866 289.222 484.966 289.562 485.166 289.806C485.366 290.046 485.672 290.166 486.084 290.166C486.384 290.166 486.664 290.096 486.924 289.956C487.184 289.812 487.428 289.616 487.656 289.368V284.904H488.826ZM491.659 282.144V291H490.483V282.144H491.659Z" fill="#676767"/>
<rect x="464" y="159" width="21" height="113" rx="3" fill="#57BE3B"/>
<rect x="489" y="214" width="21" height="58" rx="3" fill="#E3E7FC"/>
<path d="M550.64 287.79L549.362 284.448C549.27 284.22 549.178 283.932 549.086 283.584C549.042 283.756 548.996 283.916 548.948 284.064C548.904 284.212 548.86 284.344 548.816 284.46L547.544 287.79H550.64ZM553.166 291H552.182C552.07 291 551.978 290.972 551.906 290.916C551.834 290.86 551.782 290.788 551.75 290.7L550.988 288.702H547.19L546.428 290.7C546.4 290.776 546.348 290.846 546.272 290.91C546.196 290.97 546.104 291 545.996 291H545.012L548.444 282.384H549.734L553.166 291ZM558.931 284.904V291H558.229C558.069 291 557.965 290.922 557.917 290.766L557.833 290.154C557.701 290.294 557.563 290.422 557.419 290.538C557.275 290.654 557.121 290.754 556.957 290.838C556.793 290.918 556.619 290.98 556.435 291.024C556.251 291.072 556.053 291.096 555.841 291.096C555.505 291.096 555.209 291.04 554.953 290.928C554.701 290.816 554.489 290.66 554.317 290.46C554.145 290.256 554.015 290.012 553.927 289.728C553.839 289.444 553.795 289.13 553.795 288.786V284.904H554.971V288.786C554.971 289.222 555.071 289.562 555.271 289.806C555.471 290.046 555.777 290.166 556.189 290.166C556.489 290.166 556.769 290.096 557.029 289.956C557.289 289.812 557.533 289.616 557.761 289.368V284.904H558.931ZM562.706 287.958C562.914 287.958 563.096 287.93 563.252 287.874C563.412 287.818 563.544 287.74 563.648 287.64C563.756 287.536 563.836 287.412 563.888 287.268C563.944 287.124 563.972 286.966 563.972 286.794C563.972 286.442 563.864 286.162 563.648 285.954C563.436 285.742 563.122 285.636 562.706 285.636C562.294 285.636 561.98 285.742 561.764 285.954C561.552 286.162 561.446 286.442 561.446 286.794C561.446 286.966 561.472 287.124 561.524 287.268C561.58 287.408 561.66 287.53 561.764 287.634C561.872 287.734 562.004 287.814 562.16 287.874C562.32 287.93 562.502 287.958 562.706 287.958ZM564.572 291.318C564.572 291.174 564.532 291.06 564.452 290.976C564.372 290.888 564.262 290.82 564.122 290.772C563.986 290.72 563.826 290.684 563.642 290.664C563.458 290.64 563.264 290.622 563.06 290.61C562.86 290.598 562.654 290.588 562.442 290.58C562.23 290.568 562.026 290.548 561.83 290.52C561.622 290.624 561.45 290.75 561.314 290.898C561.182 291.046 561.116 291.22 561.116 291.42C561.116 291.548 561.148 291.668 561.212 291.78C561.28 291.892 561.382 291.988 561.518 292.068C561.658 292.152 561.832 292.216 562.04 292.26C562.252 292.308 562.504 292.332 562.796 292.332C563.084 292.332 563.338 292.306 563.558 292.254C563.778 292.206 563.962 292.136 564.11 292.044C564.262 291.956 564.376 291.85 564.452 291.726C564.532 291.602 564.572 291.466 564.572 291.318ZM565.76 285.132V285.57C565.76 285.714 565.67 285.804 565.49 285.84L564.836 285.936C564.892 286.06 564.936 286.192 564.968 286.332C565 286.468 565.016 286.612 565.016 286.764C565.016 287.064 564.958 287.336 564.842 287.58C564.726 287.82 564.566 288.026 564.362 288.198C564.158 288.37 563.914 288.502 563.63 288.594C563.35 288.686 563.042 288.732 562.706 288.732C562.43 288.732 562.172 288.702 561.932 288.642C561.812 288.714 561.72 288.794 561.656 288.882C561.596 288.966 561.566 289.05 561.566 289.134C561.566 289.274 561.624 289.378 561.74 289.446C561.86 289.514 562.014 289.564 562.202 289.596C562.394 289.624 562.612 289.642 562.856 289.65C563.104 289.658 563.354 289.672 563.606 289.692C563.862 289.708 564.112 289.74 564.356 289.788C564.604 289.832 564.822 289.906 565.01 290.01C565.202 290.11 565.356 290.25 565.472 290.43C565.592 290.606 565.652 290.836 565.652 291.12C565.652 291.384 565.586 291.64 565.454 291.888C565.326 292.136 565.138 292.356 564.89 292.548C564.642 292.74 564.34 292.894 563.984 293.01C563.628 293.126 563.224 293.184 562.772 293.184C562.32 293.184 561.926 293.14 561.59 293.052C561.258 292.964 560.98 292.846 560.756 292.698C560.536 292.55 560.37 292.378 560.258 292.182C560.15 291.986 560.096 291.782 560.096 291.57C560.096 291.274 560.188 291.024 560.372 290.82C560.556 290.612 560.81 290.45 561.134 290.334C560.958 290.254 560.818 290.146 560.714 290.01C560.61 289.87 560.558 289.686 560.558 289.458C560.558 289.37 560.574 289.28 560.606 289.188C560.638 289.092 560.686 288.998 560.75 288.906C560.818 288.81 560.9 288.72 560.996 288.636C561.096 288.552 561.21 288.476 561.338 288.408C561.038 288.24 560.802 288.018 560.63 287.742C560.458 287.462 560.372 287.136 560.372 286.764C560.372 286.464 560.43 286.194 560.546 285.954C560.662 285.714 560.822 285.508 561.026 285.336C561.234 285.164 561.48 285.032 561.764 284.94C562.052 284.848 562.366 284.802 562.706 284.802C563.234 284.802 563.688 284.912 564.068 285.132H565.76Z" fill="#676767"/>
<rect x="531" y="137" width="21" height="135" rx="3" fill="#57BE3B"/>
<rect x="556" y="180" width="21" height="92" rx="3" fill="#E3E7FC"/>
<path d="M617.52 283.788C617.48 283.856 617.438 283.906 617.394 283.938C617.35 283.97 617.294 283.986 617.226 283.986C617.154 283.986 617.072 283.954 616.98 283.89C616.888 283.822 616.772 283.748 616.632 283.668C616.496 283.584 616.332 283.51 616.14 283.446C615.948 283.378 615.718 283.344 615.45 283.344C615.198 283.344 614.976 283.378 614.784 283.446C614.596 283.51 614.438 283.6 614.31 283.716C614.182 283.828 614.084 283.962 614.016 284.118C613.952 284.27 613.92 284.436 613.92 284.616C613.92 284.848 613.978 285.04 614.094 285.192C614.214 285.344 614.37 285.474 614.562 285.582C614.754 285.69 614.972 285.784 615.216 285.864C615.46 285.944 615.71 286.028 615.966 286.116C616.222 286.2 616.472 286.298 616.716 286.41C616.96 286.522 617.178 286.664 617.37 286.836C617.562 287.004 617.716 287.212 617.832 287.46C617.952 287.704 618.012 288.004 618.012 288.36C618.012 288.74 617.946 289.096 617.814 289.428C617.686 289.76 617.498 290.05 617.25 290.298C617.002 290.546 616.696 290.742 616.332 290.886C615.972 291.026 615.562 291.096 615.102 291.096C614.826 291.096 614.558 291.068 614.298 291.012C614.038 290.96 613.792 290.886 613.56 290.79C613.328 290.69 613.11 290.572 612.906 290.436C612.706 290.296 612.526 290.14 612.366 289.968L612.732 289.356C612.768 289.308 612.81 289.268 612.858 289.236C612.91 289.204 612.968 289.188 613.032 289.188C613.116 289.188 613.212 289.232 613.32 289.32C613.432 289.408 613.568 289.506 613.728 289.614C613.892 289.718 614.086 289.814 614.31 289.902C614.538 289.99 614.814 290.034 615.138 290.034C615.402 290.034 615.638 290 615.846 289.932C616.054 289.86 616.228 289.76 616.368 289.632C616.512 289.5 616.622 289.342 616.698 289.158C616.774 288.974 616.812 288.77 616.812 288.546C616.812 288.294 616.754 288.088 616.638 287.928C616.522 287.768 616.368 287.634 616.176 287.526C615.984 287.418 615.766 287.326 615.522 287.25C615.278 287.174 615.028 287.096 614.772 287.016C614.516 286.932 614.266 286.836 614.022 286.728C613.778 286.62 613.56 286.48 613.368 286.308C613.176 286.132 613.022 285.914 612.906 285.654C612.79 285.39 612.732 285.066 612.732 284.682C612.732 284.374 612.792 284.076 612.912 283.788C613.032 283.5 613.206 283.246 613.434 283.026C613.666 282.802 613.95 282.624 614.286 282.492C614.622 282.356 615.006 282.288 615.438 282.288C615.922 282.288 616.366 282.366 616.77 282.522C617.178 282.674 617.532 282.894 617.832 283.182L617.52 283.788ZM623.352 287.274C623.352 287.042 623.318 286.828 623.25 286.632C623.186 286.436 623.09 286.266 622.962 286.122C622.834 285.978 622.678 285.866 622.494 285.786C622.31 285.706 622.098 285.666 621.858 285.666C621.366 285.666 620.978 285.808 620.694 286.092C620.414 286.376 620.236 286.77 620.16 287.274H623.352ZM624.318 290.13C624.174 290.298 624.008 290.444 623.82 290.568C623.632 290.688 623.432 290.786 623.22 290.862C623.008 290.938 622.788 290.994 622.56 291.03C622.336 291.066 622.114 291.084 621.894 291.084C621.474 291.084 621.084 291.014 620.724 290.874C620.368 290.73 620.058 290.522 619.794 290.25C619.534 289.974 619.33 289.634 619.182 289.23C619.038 288.822 618.966 288.354 618.966 287.826C618.966 287.402 619.032 287.008 619.164 286.644C619.296 286.276 619.484 285.956 619.728 285.684C619.976 285.412 620.278 285.198 620.634 285.042C620.99 284.886 621.39 284.808 621.834 284.808C622.206 284.808 622.548 284.87 622.86 284.994C623.176 285.114 623.448 285.29 623.676 285.522C623.904 285.754 624.082 286.04 624.21 286.38C624.342 286.72 624.408 287.108 624.408 287.544C624.408 287.724 624.388 287.846 624.348 287.91C624.308 287.97 624.234 288 624.126 288H620.13C620.142 288.364 620.194 288.682 620.286 288.954C620.378 289.222 620.504 289.446 620.664 289.626C620.828 289.806 621.022 289.94 621.246 290.028C621.47 290.116 621.72 290.16 621.996 290.16C622.256 290.16 622.48 290.13 622.668 290.07C622.86 290.01 623.024 289.946 623.16 289.878C623.3 289.806 623.416 289.74 623.508 289.68C623.604 289.62 623.688 289.59 623.76 289.59C623.856 289.59 623.93 289.626 623.982 289.698L624.318 290.13ZM626.836 289.5C627.028 289.752 627.234 289.928 627.454 290.028C627.678 290.128 627.928 290.178 628.204 290.178C628.74 290.178 629.154 289.986 629.446 289.602C629.742 289.214 629.89 288.65 629.89 287.91C629.89 287.522 629.856 287.192 629.788 286.92C629.724 286.644 629.628 286.42 629.5 286.248C629.376 286.072 629.222 285.944 629.038 285.864C628.854 285.78 628.646 285.738 628.414 285.738C628.074 285.738 627.778 285.814 627.526 285.966C627.278 286.118 627.048 286.334 626.836 286.614V289.5ZM626.776 285.816C626.904 285.664 627.04 285.526 627.184 285.402C627.332 285.274 627.49 285.166 627.658 285.078C627.826 284.986 628.004 284.916 628.192 284.868C628.384 284.816 628.588 284.79 628.804 284.79C629.152 284.79 629.466 284.858 629.746 284.994C630.03 285.13 630.272 285.33 630.472 285.594C630.672 285.858 630.826 286.184 630.934 286.572C631.046 286.96 631.102 287.406 631.102 287.91C631.102 288.362 631.04 288.782 630.916 289.17C630.796 289.554 630.622 289.888 630.394 290.172C630.17 290.456 629.894 290.68 629.566 290.844C629.242 291.004 628.876 291.084 628.468 291.084C628.104 291.084 627.792 291.024 627.532 290.904C627.272 290.784 627.04 290.616 626.836 290.4V293.046H625.666V284.904H626.368C626.532 284.904 626.634 284.982 626.674 285.138L626.776 285.816Z" fill="#676767"/>
<rect x="598" y="148" width="21" height="124" rx="3" fill="#57BE3B"/>
<rect x="623" y="188" width="21" height="84" rx="3" fill="#E3E7FC"/>
</svg>
